<?xml version="1.0" encoding="UTF-8" standalone="no"?>
<!DOCTYPE svg PUBLIC "-//W3C//DTD SVG 1.1//EN"
 "http://www.w3.org/Graphics/SVG/1.1/DTD/svg11.dtd">
<!-- Generated by graphviz version 2.38.0 (20140413.2041)
 -->
<!-- Title: foundation Pages: 1 -->
<svg width="6250pt" height="470pt"
 viewBox="0.00 0.00 6250.01 470.00" xmlns="http://www.w3.org/2000/svg" xmlns:xlink="http://www.w3.org/1999/xlink">
<g id="graph0" class="graph" transform="scale(1 1) rotate(0) translate(4 466)">
<title>foundation</title>
<polygon fill="white" stroke="none" points="-4,4 -4,-466 6246.01,-466 6246.01,4 -4,4"/>
<!-- Object -->
<g id="node1" class="node"><title>Object</title>
<path fill="none" stroke="black" d="M580.745,-83.5C580.745,-83.5 610.745,-83.5 610.745,-83.5 616.745,-83.5 622.745,-89.5 622.745,-95.5 622.745,-95.5 622.745,-117.5 622.745,-117.5 622.745,-123.5 616.745,-129.5 610.745,-129.5 610.745,-129.5 580.745,-129.5 580.745,-129.5 574.745,-129.5 568.745,-123.5 568.745,-117.5 568.745,-117.5 568.745,-95.5 568.745,-95.5 568.745,-89.5 574.745,-83.5 580.745,-83.5"/>
<text text-anchor="middle" x="595.404" y="-114.3" font-family="Times,serif" font-size="14.00">Object</text>
<polyline fill="none" stroke="black" points="568.745,-107.5 622.062,-107.5 "/>
</g>
<!-- nil -->
<g id="node2" class="node"><title>nil</title>
<path fill="none" stroke="black" d="M620.745,-0.5C620.745,-0.5 650.745,-0.5 650.745,-0.5 656.745,-0.5 662.745,-6.5 662.745,-12.5 662.745,-12.5 662.745,-34.5 662.745,-34.5 662.745,-40.5 656.745,-46.5 650.745,-46.5 650.745,-46.5 620.745,-46.5 620.745,-46.5 614.745,-46.5 608.745,-40.5 608.745,-34.5 608.745,-34.5 608.745,-12.5 608.745,-12.5 608.745,-6.5 614.745,-0.5 620.745,-0.5"/>
<text text-anchor="middle" x="635.635" y="-31.3" font-family="Times,serif" font-size="14.00">nil</text>
<polyline fill="none" stroke="black" points="608.745,-24.5 662.524,-24.5 "/>
</g>
<!-- Object&#45;&gt;nil -->
<g id="edge1" class="edge"><title>Object&#45;&gt;nil</title>
<path fill="none" stroke="black" d="M606.675,-83.3664C610.864,-74.8838 615.727,-65.0374 620.262,-55.8532"/>
<polygon fill="black" stroke="black" points="623.539,-57.1229 624.828,-46.6068 617.262,-54.0234 623.539,-57.1229"/>
</g>
<!-- NSObject -->
<g id="node3" class="node"><title>NSObject</title>
<path fill="none" stroke="black" d="M653.138,-83.5C653.138,-83.5 700.352,-83.5 700.352,-83.5 706.352,-83.5 712.352,-89.5 712.352,-95.5 712.352,-95.5 712.352,-117.5 712.352,-117.5 712.352,-123.5 706.352,-129.5 700.352,-129.5 700.352,-129.5 653.138,-129.5 653.138,-129.5 647.138,-129.5 641.138,-123.5 641.138,-117.5 641.138,-117.5 641.138,-95.5 641.138,-95.5 641.138,-89.5 647.138,-83.5 653.138,-83.5"/>
<text text-anchor="middle" x="676.745" y="-114.3" font-family="Times,serif" font-size="14.00">NSObject</text>
<polyline fill="none" stroke="black" points="641.138,-107.5 712.352,-107.5 "/>
</g>
<!-- NSObject&#45;&gt;nil -->
<g id="edge2" class="edge"><title>NSObject&#45;&gt;nil</title>
<path fill="none" stroke="black" d="M665.542,-83.3664C661.203,-74.7945 656.159,-64.8299 651.469,-55.5634"/>
<polygon fill="black" stroke="black" points="654.574,-53.9483 646.935,-46.6068 648.328,-57.1097 654.574,-53.9483"/>
</g>
<!-- NWConcrete_nw_fd_wrapper -->
<g id="node4" class="node"><title>NWConcrete_nw_fd_wrapper</title>
<path fill="none" stroke="black" d="M12,-166.5C12,-166.5 173.49,-166.5 173.49,-166.5 179.49,-166.5 185.49,-172.5 185.49,-178.5 185.49,-178.5 185.49,-200.5 185.49,-200.5 185.49,-206.5 179.49,-212.5 173.49,-212.5 173.49,-212.5 12,-212.5 12,-212.5 6,-212.5 0,-206.5 0,-200.5 0,-200.5 0,-178.5 0,-178.5 0,-172.5 6,-166.5 12,-166.5"/>
<text text-anchor="middle" x="92.7451" y="-197.3" font-family="Times,serif" font-size="14.00">NWConcrete_nw_fd_wrapper</text>
<polyline fill="none" stroke="black" points="0,-190.5 185.49,-190.5 "/>
</g>
<!-- NWConcrete_nw_fd_wrapper&#45;&gt;NSObject -->
<g id="edge3" class="edge"><title>NWConcrete_nw_fd_wrapper&#45;&gt;NSObject</title>
<path fill="none" stroke="black" d="M185.76,-167.44C188.785,-166.928 191.786,-166.446 194.745,-166 384.248,-137.427 442.16,-181.036 631.427,-129.505"/>
<polygon fill="black" stroke="black" points="632.427,-132.86 641.126,-126.813 630.554,-126.115 632.427,-132.86"/>
</g>
<!-- NWConcrete_nw_resolver -->
<g id="node5" class="node"><title>NWConcrete_nw_resolver</title>
<path fill="none" stroke="black" d="M215.717,-166.5C215.717,-166.5 357.773,-166.5 357.773,-166.5 363.773,-166.5 369.773,-172.5 369.773,-178.5 369.773,-178.5 369.773,-200.5 369.773,-200.5 369.773,-206.5 363.773,-212.5 357.773,-212.5 357.773,-212.5 215.717,-212.5 215.717,-212.5 209.717,-212.5 203.717,-206.5 203.717,-200.5 203.717,-200.5 203.717,-178.5 203.717,-178.5 203.717,-172.5 209.717,-166.5 215.717,-166.5"/>
<text text-anchor="middle" x="286.745" y="-197.3" font-family="Times,serif" font-size="14.00">NWConcrete_nw_resolver</text>
<polyline fill="none" stroke="black" points="203.717,-190.5 369.773,-190.5 "/>
</g>
<!-- NWConcrete_nw_resolver&#45;&gt;NSObject -->
<g id="edge4" class="edge"><title>NWConcrete_nw_resolver&#45;&gt;NSObject</title>
<path fill="none" stroke="black" d="M369.909,-167.772C372.887,-167.154 375.839,-166.561 378.745,-166 487.107,-145.092 521.389,-162.772 631.263,-129.641"/>
<polygon fill="black" stroke="black" points="632.545,-132.908 641.067,-126.612 630.479,-126.22 632.545,-132.908"/>
</g>
<!-- OSLogCoder -->
<g id="node6" class="node"><title>OSLogCoder</title>
<path fill="none" stroke="black" d="M399.414,-166.5C399.414,-166.5 466.076,-166.5 466.076,-166.5 472.076,-166.5 478.076,-172.5 478.076,-178.5 478.076,-178.5 478.076,-200.5 478.076,-200.5 478.076,-206.5 472.076,-212.5 466.076,-212.5 466.076,-212.5 399.414,-212.5 399.414,-212.5 393.414,-212.5 387.414,-206.5 387.414,-200.5 387.414,-200.5 387.414,-178.5 387.414,-178.5 387.414,-172.5 393.414,-166.5 399.414,-166.5"/>
<text text-anchor="middle" x="432.745" y="-197.3" font-family="Times,serif" font-size="14.00">OSLogCoder</text>
<polyline fill="none" stroke="black" points="387.414,-190.5 478.076,-190.5 "/>
</g>
<!-- OSLogCoder&#45;&gt;NSObject -->
<g id="edge5" class="edge"><title>OSLogCoder&#45;&gt;NSObject</title>
<path fill="none" stroke="black" d="M478.226,-168.98C481.092,-167.927 483.948,-166.924 486.745,-166 546.839,-146.147 567.512,-152.317 631.011,-129.9"/>
<polygon fill="black" stroke="black" points="632.498,-133.084 640.701,-126.378 630.106,-126.505 632.498,-133.084"/>
</g>
<!-- __NSUnrecognizedTaggedPointer -->
<g id="node7" class="node"><title>__NSUnrecognizedTaggedPointer</title>
<path fill="none" stroke="black" d="M507.816,-166.5C507.816,-166.5 691.674,-166.5 691.674,-166.5 697.674,-166.5 703.674,-172.5 703.674,-178.5 703.674,-178.5 703.674,-200.5 703.674,-200.5 703.674,-206.5 697.674,-212.5 691.674,-212.5 691.674,-212.5 507.816,-212.5 507.816,-212.5 501.816,-212.5 495.816,-206.5 495.816,-200.5 495.816,-200.5 495.816,-178.5 495.816,-178.5 495.816,-172.5 501.816,-166.5 507.816,-166.5"/>
<text text-anchor="middle" x="599.745" y="-197.3" font-family="Times,serif" font-size="14.00">__NSUnrecognizedTaggedPointer</text>
<polyline fill="none" stroke="black" points="495.816,-190.5 703.674,-190.5 "/>
</g>
<!-- __NSUnrecognizedTaggedPointer&#45;&gt;NSObject -->
<g id="edge6" class="edge"><title>__NSUnrecognizedTaggedPointer&#45;&gt;NSObject</title>
<path fill="none" stroke="black" d="M620.786,-166.366C629.359,-157.348 639.397,-146.788 648.586,-137.121"/>
<polygon fill="black" stroke="black" points="651.377,-139.266 655.73,-129.607 646.303,-134.443 651.377,-139.266"/>
</g>
<!-- Protocol -->
<g id="node8" class="node"><title>Protocol</title>
<path fill="none" stroke="black" d="M734.024,-166.5C734.024,-166.5 773.466,-166.5 773.466,-166.5 779.466,-166.5 785.466,-172.5 785.466,-178.5 785.466,-178.5 785.466,-200.5 785.466,-200.5 785.466,-206.5 779.466,-212.5 773.466,-212.5 773.466,-212.5 734.024,-212.5 734.024,-212.5 728.024,-212.5 722.024,-206.5 722.024,-200.5 722.024,-200.5 722.024,-178.5 722.024,-178.5 722.024,-172.5 728.024,-166.5 734.024,-166.5"/>
<text text-anchor="middle" x="753.745" y="-197.3" font-family="Times,serif" font-size="14.00">Protocol</text>
<polyline fill="none" stroke="black" points="722.024,-190.5 785.466,-190.5 "/>
</g>
<!-- Protocol&#45;&gt;NSObject -->
<g id="edge7" class="edge"><title>Protocol&#45;&gt;NSObject</title>
<path fill="none" stroke="black" d="M732.705,-166.366C724.132,-157.348 714.093,-146.788 704.904,-137.121"/>
<polygon fill="black" stroke="black" points="707.187,-134.443 697.76,-129.607 702.113,-139.266 707.187,-134.443"/>
</g>
<!-- __IncompleteProtocol -->
<g id="node9" class="node"><title>__IncompleteProtocol</title>
<path fill="none" stroke="black" d="M815.538,-166.5C815.538,-166.5 931.952,-166.5 931.952,-166.5 937.952,-166.5 943.952,-172.5 943.952,-178.5 943.952,-178.5 943.952,-200.5 943.952,-200.5 943.952,-206.5 937.952,-212.5 931.952,-212.5 931.952,-212.5 815.538,-212.5 815.538,-212.5 809.538,-212.5 803.538,-206.5 803.538,-200.5 803.538,-200.5 803.538,-178.5 803.538,-178.5 803.538,-172.5 809.538,-166.5 815.538,-166.5"/>
<text text-anchor="middle" x="873.745" y="-197.3" font-family="Times,serif" font-size="14.00">__IncompleteProtocol</text>
<polyline fill="none" stroke="black" points="803.538,-190.5 943.952,-190.5 "/>
</g>
<!-- __IncompleteProtocol&#45;&gt;NSObject -->
<g id="edge8" class="edge"><title>__IncompleteProtocol&#45;&gt;NSObject</title>
<path fill="none" stroke="black" d="M820.174,-166.473C789.465,-153.847 751.34,-138.171 722.117,-126.156"/>
<polygon fill="black" stroke="black" points="723.152,-122.797 712.572,-122.231 720.49,-129.271 723.152,-122.797"/>
</g>
<!-- OS_dispatch_data -->
<g id="node10" class="node"><title>OS_dispatch_data</title>
<path fill="none" stroke="black" d="M973.811,-166.5C973.811,-166.5 1067.68,-166.5 1067.68,-166.5 1073.68,-166.5 1079.68,-172.5 1079.68,-178.5 1079.68,-178.5 1079.68,-200.5 1079.68,-200.5 1079.68,-206.5 1073.68,-212.5 1067.68,-212.5 1067.68,-212.5 973.811,-212.5 973.811,-212.5 967.811,-212.5 961.811,-206.5 961.811,-200.5 961.811,-200.5 961.811,-178.5 961.811,-178.5 961.811,-172.5 967.811,-166.5 973.811,-166.5"/>
<text text-anchor="middle" x="1020.75" y="-197.3" font-family="Times,serif" font-size="14.00">OS_dispatch_data</text>
<polyline fill="none" stroke="black" points="961.811,-190.5 1079.68,-190.5 "/>
</g>
<!-- OS_dispatch_data&#45;&gt;NSObject -->
<g id="edge9" class="edge"><title>OS_dispatch_data&#45;&gt;NSObject</title>
<path fill="none" stroke="black" d="M961.524,-168.476C958.564,-167.61 955.626,-166.779 952.745,-166 872.791,-144.37 778.038,-125.79 722.923,-115.669"/>
<polygon fill="black" stroke="black" points="723.241,-112.169 712.775,-113.819 721.985,-119.056 723.241,-112.169"/>
</g>
<!-- OS_dispatch_data_empty -->
<g id="node11" class="node"><title>OS_dispatch_data_empty</title>
<path fill="none" stroke="black" d="M386.814,-249.5C386.814,-249.5 522.676,-249.5 522.676,-249.5 528.676,-249.5 534.676,-255.5 534.676,-261.5 534.676,-261.5 534.676,-283.5 534.676,-283.5 534.676,-289.5 528.676,-295.5 522.676,-295.5 522.676,-295.5 386.814,-295.5 386.814,-295.5 380.814,-295.5 374.814,-289.5 374.814,-283.5 374.814,-283.5 374.814,-261.5 374.814,-261.5 374.814,-255.5 380.814,-249.5 386.814,-249.5"/>
<text text-anchor="middle" x="454.745" y="-280.3" font-family="Times,serif" font-size="14.00">OS_dispatch_data_empty</text>
<polyline fill="none" stroke="black" points="374.814,-273.5 534.676,-273.5 "/>
</g>
<!-- OS_dispatch_data_empty&#45;&gt;OS_dispatch_data -->
<g id="edge10" class="edge"><title>OS_dispatch_data_empty&#45;&gt;OS_dispatch_data</title>
<path fill="none" stroke="black" d="M535.153,-250.56C538.046,-250.002 540.917,-249.479 543.745,-249 720.415,-219.09 772.174,-248.796 951.593,-213"/>
<polygon fill="black" stroke="black" points="952.527,-216.381 961.627,-210.957 951.13,-209.522 952.527,-216.381"/>
</g>
<!-- OS_object -->
<g id="node12" class="node"><title>OS_object</title>
<path fill="none" stroke="black" d="M1675.19,-166.5C1675.19,-166.5 1726.3,-166.5 1726.3,-166.5 1732.3,-166.5 1738.3,-172.5 1738.3,-178.5 1738.3,-178.5 1738.3,-200.5 1738.3,-200.5 1738.3,-206.5 1732.3,-212.5 1726.3,-212.5 1726.3,-212.5 1675.19,-212.5 1675.19,-212.5 1669.19,-212.5 1663.19,-206.5 1663.19,-200.5 1663.19,-200.5 1663.19,-178.5 1663.19,-178.5 1663.19,-172.5 1669.19,-166.5 1675.19,-166.5"/>
<text text-anchor="middle" x="1700.75" y="-197.3" font-family="Times,serif" font-size="14.00">OS_object</text>
<polyline fill="none" stroke="black" points="1663.19,-190.5 1738.3,-190.5 "/>
</g>
<!-- OS_object&#45;&gt;NSObject -->
<g id="edge11" class="edge"><title>OS_object&#45;&gt;NSObject</title>
<path fill="none" stroke="black" d="M1663.09,-185.521C1505.03,-173.018 895.429,-124.798 722.636,-111.13"/>
<polygon fill="black" stroke="black" points="722.846,-107.636 712.601,-110.336 722.294,-114.614 722.846,-107.636"/>
</g>
<!-- OS_nw_nexus -->
<g id="node13" class="node"><title>OS_nw_nexus</title>
<path fill="none" stroke="black" d="M564.911,-249.5C564.911,-249.5 638.58,-249.5 638.58,-249.5 644.58,-249.5 650.58,-255.5 650.58,-261.5 650.58,-261.5 650.58,-283.5 650.58,-283.5 650.58,-289.5 644.58,-295.5 638.58,-295.5 638.58,-295.5 564.911,-295.5 564.911,-295.5 558.911,-295.5 552.911,-289.5 552.911,-283.5 552.911,-283.5 552.911,-261.5 552.911,-261.5 552.911,-255.5 558.911,-249.5 564.911,-249.5"/>
<text text-anchor="middle" x="601.745" y="-280.3" font-family="Times,serif" font-size="14.00">OS_nw_nexus</text>
<polyline fill="none" stroke="black" points="552.911,-273.5 650.58,-273.5 "/>
</g>
<!-- OS_nw_nexus&#45;&gt;OS_object -->
<g id="edge12" class="edge"><title>OS_nw_nexus&#45;&gt;OS_object</title>
<path fill="none" stroke="black" d="M650.782,-251.271C653.786,-250.408 656.789,-249.64 659.745,-249 757.465,-227.855 1461.87,-199.636 1653,-192.302"/>
<polygon fill="black" stroke="black" points="1653.17,-195.798 1663.03,-191.918 1652.9,-188.803 1653.17,-195.798"/>
</g>
<!-- OS_nw_channel -->
<g id="node14" class="node"><title>OS_nw_channel</title>
<path fill="none" stroke="black" d="M680.476,-249.5C680.476,-249.5 765.014,-249.5 765.014,-249.5 771.014,-249.5 777.014,-255.5 777.014,-261.5 777.014,-261.5 777.014,-283.5 777.014,-283.5 777.014,-289.5 771.014,-295.5 765.014,-295.5 765.014,-295.5 680.476,-295.5 680.476,-295.5 674.476,-295.5 668.476,-289.5 668.476,-283.5 668.476,-283.5 668.476,-261.5 668.476,-261.5 668.476,-255.5 674.476,-249.5 680.476,-249.5"/>
<text text-anchor="middle" x="722.745" y="-280.3" font-family="Times,serif" font-size="14.00">OS_nw_channel</text>
<polyline fill="none" stroke="black" points="668.476,-273.5 777.014,-273.5 "/>
</g>
<!-- OS_nw_channel&#45;&gt;OS_object -->
<g id="edge13" class="edge"><title>OS_nw_channel&#45;&gt;OS_object</title>
<path fill="none" stroke="black" d="M777.114,-251.035C780.012,-250.273 782.901,-249.587 785.745,-249 954.023,-214.286 1489.19,-196.518 1652.78,-191.802"/>
<polygon fill="black" stroke="black" points="1653.11,-195.294 1663.01,-191.51 1652.91,-188.297 1653.11,-195.294"/>
</g>
<!-- OS_nw_frame -->
<g id="node15" class="node"><title>OS_nw_frame</title>
<path fill="none" stroke="black" d="M806.921,-249.5C806.921,-249.5 880.569,-249.5 880.569,-249.5 886.569,-249.5 892.569,-255.5 892.569,-261.5 892.569,-261.5 892.569,-283.5 892.569,-283.5 892.569,-289.5 886.569,-295.5 880.569,-295.5 880.569,-295.5 806.921,-295.5 806.921,-295.5 800.921,-295.5 794.921,-289.5 794.921,-283.5 794.921,-283.5 794.921,-261.5 794.921,-261.5 794.921,-255.5 800.921,-249.5 806.921,-249.5"/>
<text text-anchor="middle" x="843.745" y="-280.3" font-family="Times,serif" font-size="14.00">OS_nw_frame</text>
<polyline fill="none" stroke="black" points="794.921,-273.5 892.569,-273.5 "/>
</g>
<!-- OS_nw_frame&#45;&gt;OS_object -->
<g id="edge14" class="edge"><title>OS_nw_frame&#45;&gt;OS_object</title>
<path fill="none" stroke="black" d="M892.795,-251.33C895.796,-250.453 898.795,-249.665 901.745,-249 1046.18,-216.464 1502.95,-197.585 1652.69,-192.15"/>
<polygon fill="black" stroke="black" points="1653.07,-195.639 1662.93,-191.782 1652.81,-188.643 1653.07,-195.639"/>
</g>
<!-- OS_nw_dictionary -->
<g id="node16" class="node"><title>OS_nw_dictionary</title>
<path fill="none" stroke="black" d="M922.862,-249.5C922.862,-249.5 1020.63,-249.5 1020.63,-249.5 1026.63,-249.5 1032.63,-255.5 1032.63,-261.5 1032.63,-261.5 1032.63,-283.5 1032.63,-283.5 1032.63,-289.5 1026.63,-295.5 1020.63,-295.5 1020.63,-295.5 922.862,-295.5 922.862,-295.5 916.862,-295.5 910.862,-289.5 910.862,-283.5 910.862,-283.5 910.862,-261.5 910.862,-261.5 910.862,-255.5 916.862,-249.5 922.862,-249.5"/>
<text text-anchor="middle" x="971.745" y="-280.3" font-family="Times,serif" font-size="14.00">OS_nw_dictionary</text>
<polyline fill="none" stroke="black" points="910.862,-273.5 1032.63,-273.5 "/>
</g>
<!-- OS_nw_dictionary&#45;&gt;OS_object -->
<g id="edge15" class="edge"><title>OS_nw_dictionary&#45;&gt;OS_object</title>
<path fill="none" stroke="black" d="M1033,-250.96C1035.94,-250.242 1038.87,-249.583 1041.75,-249 1267.49,-203.293 1543.93,-193.297 1653.13,-191.112"/>
<polygon fill="black" stroke="black" points="1653.24,-194.61 1663.17,-190.924 1653.11,-187.612 1653.24,-194.61"/>
</g>
<!-- OS_nw_array -->
<g id="node17" class="node"><title>OS_nw_array</title>
<path fill="none" stroke="black" d="M1062.87,-249.5C1062.87,-249.5 1132.62,-249.5 1132.62,-249.5 1138.62,-249.5 1144.62,-255.5 1144.62,-261.5 1144.62,-261.5 1144.62,-283.5 1144.62,-283.5 1144.62,-289.5 1138.62,-295.5 1132.62,-295.5 1132.62,-295.5 1062.87,-295.5 1062.87,-295.5 1056.87,-295.5 1050.87,-289.5 1050.87,-283.5 1050.87,-283.5 1050.87,-261.5 1050.87,-261.5 1050.87,-255.5 1056.87,-249.5 1062.87,-249.5"/>
<text text-anchor="middle" x="1097.75" y="-280.3" font-family="Times,serif" font-size="14.00">OS_nw_array</text>
<polyline fill="none" stroke="black" points="1050.87,-273.5 1144.62,-273.5 "/>
</g>
<!-- OS_nw_array&#45;&gt;OS_object -->
<g id="edge16" class="edge"><title>OS_nw_array&#45;&gt;OS_object</title>
<path fill="none" stroke="black" d="M1144.8,-251.534C1147.8,-250.592 1150.8,-249.735 1153.75,-249 1334.18,-204.023 1556.56,-193.622 1652.71,-191.22"/>
<polygon fill="black" stroke="black" points="1653.07,-194.713 1662.98,-190.982 1652.91,-187.714 1653.07,-194.713"/>
</g>
<!-- OS_nw_interface -->
<g id="node18" class="node"><title>OS_nw_interface</title>
<path fill="none" stroke="black" d="M1174.76,-249.5C1174.76,-249.5 1264.73,-249.5 1264.73,-249.5 1270.73,-249.5 1276.73,-255.5 1276.73,-261.5 1276.73,-261.5 1276.73,-283.5 1276.73,-283.5 1276.73,-289.5 1270.73,-295.5 1264.73,-295.5 1264.73,-295.5 1174.76,-295.5 1174.76,-295.5 1168.76,-295.5 1162.76,-289.5 1162.76,-283.5 1162.76,-283.5 1162.76,-261.5 1162.76,-261.5 1162.76,-255.5 1168.76,-249.5 1174.76,-249.5"/>
<text text-anchor="middle" x="1219.75" y="-280.3" font-family="Times,serif" font-size="14.00">OS_nw_interface</text>
<polyline fill="none" stroke="black" points="1162.76,-273.5 1276.73,-273.5 "/>
</g>
<!-- OS_nw_interface&#45;&gt;OS_object -->
<g id="edge17" class="edge"><title>OS_nw_interface&#45;&gt;OS_object</title>
<path fill="none" stroke="black" d="M1276.79,-251.318C1279.8,-250.483 1282.8,-249.703 1285.75,-249 1416.81,-217.718 1575.41,-201.082 1653.13,-194.272"/>
<polygon fill="black" stroke="black" points="1653.44,-197.758 1663.1,-193.413 1652.84,-190.784 1653.44,-197.758"/>
</g>
<!-- OS_nw_path_evaluator -->
<g id="node19" class="node"><title>OS_nw_path_evaluator</title>
<path fill="none" stroke="black" d="M1306.65,-249.5C1306.65,-249.5 1430.84,-249.5 1430.84,-249.5 1436.84,-249.5 1442.84,-255.5 1442.84,-261.5 1442.84,-261.5 1442.84,-283.5 1442.84,-283.5 1442.84,-289.5 1436.84,-295.5 1430.84,-295.5 1430.84,-295.5 1306.65,-295.5 1306.65,-295.5 1300.65,-295.5 1294.65,-289.5 1294.65,-283.5 1294.65,-283.5 1294.65,-261.5 1294.65,-261.5 1294.65,-255.5 1300.65,-249.5 1306.65,-249.5"/>
<text text-anchor="middle" x="1368.75" y="-280.3" font-family="Times,serif" font-size="14.00">OS_nw_path_evaluator</text>
<polyline fill="none" stroke="black" points="1294.65,-273.5 1442.84,-273.5 "/>
</g>
<!-- OS_nw_path_evaluator&#45;&gt;OS_object -->
<g id="edge18" class="edge"><title>OS_nw_path_evaluator&#45;&gt;OS_object</title>
<path fill="none" stroke="black" d="M1442.92,-251.257C1445.9,-250.487 1448.85,-249.732 1451.75,-249 1521.62,-231.325 1602.99,-212.546 1653.19,-201.168"/>
<polygon fill="black" stroke="black" points="1654.12,-204.545 1663.1,-198.925 1652.58,-197.717 1654.12,-204.545"/>
</g>
<!-- OS_nw_path -->
<g id="node20" class="node"><title>OS_nw_path</title>
<path fill="none" stroke="black" d="M1473.19,-249.5C1473.19,-249.5 1538.3,-249.5 1538.3,-249.5 1544.3,-249.5 1550.3,-255.5 1550.3,-261.5 1550.3,-261.5 1550.3,-283.5 1550.3,-283.5 1550.3,-289.5 1544.3,-295.5 1538.3,-295.5 1538.3,-295.5 1473.19,-295.5 1473.19,-295.5 1467.19,-295.5 1461.19,-289.5 1461.19,-283.5 1461.19,-283.5 1461.19,-261.5 1461.19,-261.5 1461.19,-255.5 1467.19,-249.5 1473.19,-249.5"/>
<text text-anchor="middle" x="1505.75" y="-280.3" font-family="Times,serif" font-size="14.00">OS_nw_path</text>
<polyline fill="none" stroke="black" points="1461.19,-273.5 1550.3,-273.5 "/>
</g>
<!-- OS_nw_path&#45;&gt;OS_object -->
<g id="edge19" class="edge"><title>OS_nw_path&#45;&gt;OS_object</title>
<path fill="none" stroke="black" d="M1550.53,-252.833C1553.65,-251.535 1556.74,-250.248 1559.75,-249 1591.05,-235.985 1626.27,-221.37 1653.69,-210.004"/>
<polygon fill="black" stroke="black" points="1655.14,-213.19 1663.04,-206.127 1652.46,-206.724 1655.14,-213.19"/>
</g>
<!-- OS_nw_parameters -->
<g id="node21" class="node"><title>OS_nw_parameters</title>
<path fill="none" stroke="black" d="M1580.54,-249.5C1580.54,-249.5 1682.95,-249.5 1682.95,-249.5 1688.95,-249.5 1694.95,-255.5 1694.95,-261.5 1694.95,-261.5 1694.95,-283.5 1694.95,-283.5 1694.95,-289.5 1688.95,-295.5 1682.95,-295.5 1682.95,-295.5 1580.54,-295.5 1580.54,-295.5 1574.54,-295.5 1568.54,-289.5 1568.54,-283.5 1568.54,-283.5 1568.54,-261.5 1568.54,-261.5 1568.54,-255.5 1574.54,-249.5 1580.54,-249.5"/>
<text text-anchor="middle" x="1631.75" y="-280.3" font-family="Times,serif" font-size="14.00">OS_nw_parameters</text>
<polyline fill="none" stroke="black" points="1568.54,-273.5 1694.95,-273.5 "/>
</g>
<!-- OS_nw_parameters&#45;&gt;OS_object -->
<g id="edge20" class="edge"><title>OS_nw_parameters&#45;&gt;OS_object</title>
<path fill="none" stroke="black" d="M1650.6,-249.366C1658.21,-240.437 1667.1,-229.997 1675.27,-220.409"/>
<polygon fill="black" stroke="black" points="1678.09,-222.489 1681.91,-212.607 1672.76,-217.95 1678.09,-222.489"/>
</g>
<!-- OS_nw_endpoint -->
<g id="node22" class="node"><title>OS_nw_endpoint</title>
<path fill="none" stroke="black" d="M1724.75,-249.5C1724.75,-249.5 1814.75,-249.5 1814.75,-249.5 1820.75,-249.5 1826.75,-255.5 1826.75,-261.5 1826.75,-261.5 1826.75,-283.5 1826.75,-283.5 1826.75,-289.5 1820.75,-295.5 1814.75,-295.5 1814.75,-295.5 1724.75,-295.5 1724.75,-295.5 1718.75,-295.5 1712.75,-289.5 1712.75,-283.5 1712.75,-283.5 1712.75,-261.5 1712.75,-261.5 1712.75,-255.5 1718.75,-249.5 1724.75,-249.5"/>
<text text-anchor="middle" x="1769.75" y="-280.3" font-family="Times,serif" font-size="14.00">OS_nw_endpoint</text>
<polyline fill="none" stroke="black" points="1712.75,-273.5 1826.75,-273.5 "/>
</g>
<!-- OS_nw_endpoint&#45;&gt;OS_object -->
<g id="edge21" class="edge"><title>OS_nw_endpoint&#45;&gt;OS_object</title>
<path fill="none" stroke="black" d="M1750.89,-249.366C1743.28,-240.437 1734.39,-229.997 1726.22,-220.409"/>
<polygon fill="black" stroke="black" points="1728.73,-217.95 1719.58,-212.607 1723.4,-222.489 1728.73,-217.95"/>
</g>
<!-- OS_nw_read_request -->
<g id="node23" class="node"><title>OS_nw_read_request</title>
<path fill="none" stroke="black" d="M1856.48,-249.5C1856.48,-249.5 1969.01,-249.5 1969.01,-249.5 1975.01,-249.5 1981.01,-255.5 1981.01,-261.5 1981.01,-261.5 1981.01,-283.5 1981.01,-283.5 1981.01,-289.5 1975.01,-295.5 1969.01,-295.5 1969.01,-295.5 1856.48,-295.5 1856.48,-295.5 1850.48,-295.5 1844.48,-289.5 1844.48,-283.5 1844.48,-283.5 1844.48,-261.5 1844.48,-261.5 1844.48,-255.5 1850.48,-249.5 1856.48,-249.5"/>
<text text-anchor="middle" x="1912.75" y="-280.3" font-family="Times,serif" font-size="14.00">OS_nw_read_request</text>
<polyline fill="none" stroke="black" points="1844.48,-273.5 1981.01,-273.5 "/>
</g>
<!-- OS_nw_read_request&#45;&gt;OS_object -->
<g id="edge22" class="edge"><title>OS_nw_read_request&#45;&gt;OS_object</title>
<path fill="none" stroke="black" d="M1855.1,-249.473C1821.43,-236.609 1779.48,-220.581 1747.81,-208.482"/>
<polygon fill="black" stroke="black" points="1748.92,-205.162 1738.33,-204.862 1746.43,-211.7 1748.92,-205.162"/>
</g>
<!-- OS_nw_write_request -->
<g id="node24" class="node"><title>OS_nw_write_request</title>
<path fill="none" stroke="black" d="M2011.15,-249.5C2011.15,-249.5 2128.35,-249.5 2128.35,-249.5 2134.35,-249.5 2140.35,-255.5 2140.35,-261.5 2140.35,-261.5 2140.35,-283.5 2140.35,-283.5 2140.35,-289.5 2134.35,-295.5 2128.35,-295.5 2128.35,-295.5 2011.15,-295.5 2011.15,-295.5 2005.15,-295.5 1999.15,-289.5 1999.15,-283.5 1999.15,-283.5 1999.15,-261.5 1999.15,-261.5 1999.15,-255.5 2005.15,-249.5 2011.15,-249.5"/>
<text text-anchor="middle" x="2069.75" y="-280.3" font-family="Times,serif" font-size="14.00">OS_nw_write_request</text>
<polyline fill="none" stroke="black" points="1999.15,-273.5 2140.35,-273.5 "/>
</g>
<!-- OS_nw_write_request&#45;&gt;OS_object -->
<g id="edge23" class="edge"><title>OS_nw_write_request&#45;&gt;OS_object</title>
<path fill="none" stroke="black" d="M1998.72,-251.227C1995.69,-250.457 1992.69,-249.711 1989.75,-249 1905.25,-228.596 1805.69,-209.522 1748.23,-198.99"/>
<polygon fill="black" stroke="black" points="1748.82,-195.539 1738.35,-197.187 1747.56,-202.425 1748.82,-195.539"/>
</g>
<!-- OS_os_eventlog -->
<g id="node25" class="node"><title>OS_os_eventlog</title>
<path fill="none" stroke="black" d="M2170.47,-249.5C2170.47,-249.5 2255.02,-249.5 2255.02,-249.5 2261.02,-249.5 2267.02,-255.5 2267.02,-261.5 2267.02,-261.5 2267.02,-283.5 2267.02,-283.5 2267.02,-289.5 2261.02,-295.5 2255.02,-295.5 2255.02,-295.5 2170.47,-295.5 2170.47,-295.5 2164.47,-295.5 2158.47,-289.5 2158.47,-283.5 2158.47,-283.5 2158.47,-261.5 2158.47,-261.5 2158.47,-255.5 2164.47,-249.5 2170.47,-249.5"/>
<text text-anchor="middle" x="2212.75" y="-280.3" font-family="Times,serif" font-size="14.00">OS_os_eventlog</text>
<polyline fill="none" stroke="black" points="2158.47,-273.5 2267.02,-273.5 "/>
</g>
<!-- OS_os_eventlog&#45;&gt;OS_object -->
<g id="edge24" class="edge"><title>OS_os_eventlog&#45;&gt;OS_object</title>
<path fill="none" stroke="black" d="M2158.33,-251.262C2155.44,-250.441 2152.57,-249.68 2149.75,-249 2006.09,-214.41 1831.34,-199.077 1748.59,-193.37"/>
<polygon fill="black" stroke="black" points="1748.7,-189.87 1738.49,-192.69 1748.23,-196.854 1748.7,-189.87"/>
</g>
<!-- OS_os_transaction -->
<g id="node26" class="node"><title>OS_os_transaction</title>
<path fill="none" stroke="black" d="M2296.86,-249.5C2296.86,-249.5 2394.63,-249.5 2394.63,-249.5 2400.63,-249.5 2406.63,-255.5 2406.63,-261.5 2406.63,-261.5 2406.63,-283.5 2406.63,-283.5 2406.63,-289.5 2400.63,-295.5 2394.63,-295.5 2394.63,-295.5 2296.86,-295.5 2296.86,-295.5 2290.86,-295.5 2284.86,-289.5 2284.86,-283.5 2284.86,-283.5 2284.86,-261.5 2284.86,-261.5 2284.86,-255.5 2290.86,-249.5 2296.86,-249.5"/>
<text text-anchor="middle" x="2345.75" y="-280.3" font-family="Times,serif" font-size="14.00">OS_os_transaction</text>
<polyline fill="none" stroke="black" points="2284.86,-273.5 2406.63,-273.5 "/>
</g>
<!-- OS_os_transaction&#45;&gt;OS_object -->
<g id="edge25" class="edge"><title>OS_os_transaction&#45;&gt;OS_object</title>
<path fill="none" stroke="black" d="M2284.48,-251.006C2281.54,-250.276 2278.62,-249.601 2275.75,-249 2082.94,-208.672 1847.73,-195.794 1748.51,-191.981"/>
<polygon fill="black" stroke="black" points="1748.62,-188.483 1738.5,-191.609 1748.36,-195.478 1748.62,-188.483"/>
</g>
<!-- OS_os_activity -->
<g id="node27" class="node"><title>OS_os_activity</title>
<path fill="none" stroke="black" d="M2436.58,-249.5C2436.58,-249.5 2514.91,-249.5 2514.91,-249.5 2520.91,-249.5 2526.91,-255.5 2526.91,-261.5 2526.91,-261.5 2526.91,-283.5 2526.91,-283.5 2526.91,-289.5 2520.91,-295.5 2514.91,-295.5 2514.91,-295.5 2436.58,-295.5 2436.58,-295.5 2430.58,-295.5 2424.58,-289.5 2424.58,-283.5 2424.58,-283.5 2424.58,-261.5 2424.58,-261.5 2424.58,-255.5 2430.58,-249.5 2436.58,-249.5"/>
<text text-anchor="middle" x="2475.75" y="-280.3" font-family="Times,serif" font-size="14.00">OS_os_activity</text>
<polyline fill="none" stroke="black" points="2424.58,-273.5 2526.91,-273.5 "/>
</g>
<!-- OS_os_activity&#45;&gt;OS_object -->
<g id="edge26" class="edge"><title>OS_os_activity&#45;&gt;OS_object</title>
<path fill="none" stroke="black" d="M2424.31,-251.179C2421.44,-250.367 2418.57,-249.632 2415.75,-249 2169.42,-193.864 1864.98,-189.363 1748.83,-189.88"/>
<polygon fill="black" stroke="black" points="1748.49,-186.382 1738.51,-189.942 1748.53,-193.382 1748.49,-186.382"/>
</g>
<!-- OS_os_log -->
<g id="node28" class="node"><title>OS_os_log</title>
<path fill="none" stroke="black" d="M2556.63,-249.5C2556.63,-249.5 2610.86,-249.5 2610.86,-249.5 2616.86,-249.5 2622.86,-255.5 2622.86,-261.5 2622.86,-261.5 2622.86,-283.5 2622.86,-283.5 2622.86,-289.5 2616.86,-295.5 2610.86,-295.5 2610.86,-295.5 2556.63,-295.5 2556.63,-295.5 2550.63,-295.5 2544.63,-289.5 2544.63,-283.5 2544.63,-283.5 2544.63,-261.5 2544.63,-261.5 2544.63,-255.5 2550.63,-249.5 2556.63,-249.5"/>
<text text-anchor="middle" x="2583.75" y="-280.3" font-family="Times,serif" font-size="14.00">OS_os_log</text>
<polyline fill="none" stroke="black" points="2544.63,-273.5 2622.86,-273.5 "/>
</g>
<!-- OS_os_log&#45;&gt;OS_object -->
<g id="edge27" class="edge"><title>OS_os_log&#45;&gt;OS_object</title>
<path fill="none" stroke="black" d="M2544.62,-251.763C2541.66,-250.704 2538.68,-249.764 2535.75,-249 2385.19,-209.892 1902.51,-195.282 1748.47,-191.546"/>
<polygon fill="black" stroke="black" points="1748.46,-188.045 1738.38,-191.306 1748.29,-195.043 1748.46,-188.045"/>
</g>
<!-- OS_xpc_object -->
<g id="node29" class="node"><title>OS_xpc_object</title>
<path fill="none" stroke="black" d="M2652.59,-249.5C2652.59,-249.5 2730.9,-249.5 2730.9,-249.5 2736.9,-249.5 2742.9,-255.5 2742.9,-261.5 2742.9,-261.5 2742.9,-283.5 2742.9,-283.5 2742.9,-289.5 2736.9,-295.5 2730.9,-295.5 2730.9,-295.5 2652.59,-295.5 2652.59,-295.5 2646.59,-295.5 2640.59,-289.5 2640.59,-283.5 2640.59,-283.5 2640.59,-261.5 2640.59,-261.5 2640.59,-255.5 2646.59,-249.5 2652.59,-249.5"/>
<text text-anchor="middle" x="2691.75" y="-280.3" font-family="Times,serif" font-size="14.00">OS_xpc_object</text>
<polyline fill="none" stroke="black" points="2640.59,-273.5 2742.9,-273.5 "/>
</g>
<!-- OS_xpc_object&#45;&gt;OS_object -->
<g id="edge28" class="edge"><title>OS_xpc_object&#45;&gt;OS_object</title>
<path fill="none" stroke="black" d="M2640.33,-251.114C2637.45,-250.319 2634.57,-249.605 2631.75,-249 2460.51,-212.366 1914.23,-195.88 1748.72,-191.643"/>
<polygon fill="black" stroke="black" points="1748.47,-188.136 1738.38,-191.382 1748.29,-195.134 1748.47,-188.136"/>
</g>
<!-- OS_xpc_activity -->
<g id="node30" class="node"><title>OS_xpc_activity</title>
<path fill="none" stroke="black" d="M1004.7,-332.5C1004.7,-332.5 1090.79,-332.5 1090.79,-332.5 1096.79,-332.5 1102.79,-338.5 1102.79,-344.5 1102.79,-344.5 1102.79,-366.5 1102.79,-366.5 1102.79,-372.5 1096.79,-378.5 1090.79,-378.5 1090.79,-378.5 1004.7,-378.5 1004.7,-378.5 998.697,-378.5 992.697,-372.5 992.697,-366.5 992.697,-366.5 992.697,-344.5 992.697,-344.5 992.697,-338.5 998.697,-332.5 1004.7,-332.5"/>
<text text-anchor="middle" x="1047.75" y="-363.3" font-family="Times,serif" font-size="14.00">OS_xpc_activity</text>
<polyline fill="none" stroke="black" points="992.697,-356.5 1102.79,-356.5 "/>
</g>
<!-- OS_xpc_activity&#45;&gt;OS_xpc_object -->
<g id="edge29" class="edge"><title>OS_xpc_activity&#45;&gt;OS_xpc_object</title>
<path fill="none" stroke="black" d="M1102.96,-333.896C1105.91,-333.17 1108.85,-332.53 1111.75,-332 1440.94,-271.799 2283.78,-358.536 2630.49,-295.869"/>
<polygon fill="black" stroke="black" points="2631.17,-299.303 2640.35,-294.02 2629.88,-292.423 2631.17,-299.303"/>
</g>
<!-- OS_xpc_service_instance -->
<g id="node31" class="node"><title>OS_xpc_service_instance</title>
<path fill="none" stroke="black" d="M1132.43,-332.5C1132.43,-332.5 1269.06,-332.5 1269.06,-332.5 1275.06,-332.5 1281.06,-338.5 1281.06,-344.5 1281.06,-344.5 1281.06,-366.5 1281.06,-366.5 1281.06,-372.5 1275.06,-378.5 1269.06,-378.5 1269.06,-378.5 1132.43,-378.5 1132.43,-378.5 1126.43,-378.5 1120.43,-372.5 1120.43,-366.5 1120.43,-366.5 1120.43,-344.5 1120.43,-344.5 1120.43,-338.5 1126.43,-332.5 1132.43,-332.5"/>
<text text-anchor="middle" x="1200.75" y="-363.3" font-family="Times,serif" font-size="14.00">OS_xpc_service_instance</text>
<polyline fill="none" stroke="black" points="1120.43,-356.5 1281.06,-356.5 "/>
</g>
<!-- OS_xpc_service_instance&#45;&gt;OS_xpc_object -->
<g id="edge30" class="edge"><title>OS_xpc_service_instance&#45;&gt;OS_xpc_object</title>
<path fill="none" stroke="black" d="M1281.12,-333.336C1284.02,-332.841 1286.9,-332.392 1289.75,-332 1582.1,-291.63 2322.8,-351.841 2630.48,-295.873"/>
<polygon fill="black" stroke="black" points="2631.17,-299.305 2640.35,-294.009 2629.87,-292.426 2631.17,-299.305"/>
</g>
<!-- OS_xpc_bundle -->
<g id="node32" class="node"><title>OS_xpc_bundle</title>
<path fill="none" stroke="black" d="M1310.64,-332.5C1310.64,-332.5 1392.85,-332.5 1392.85,-332.5 1398.85,-332.5 1404.85,-338.5 1404.85,-344.5 1404.85,-344.5 1404.85,-366.5 1404.85,-366.5 1404.85,-372.5 1398.85,-378.5 1392.85,-378.5 1392.85,-378.5 1310.64,-378.5 1310.64,-378.5 1304.64,-378.5 1298.64,-372.5 1298.64,-366.5 1298.64,-366.5 1298.64,-344.5 1298.64,-344.5 1298.64,-338.5 1304.64,-332.5 1310.64,-332.5"/>
<text text-anchor="middle" x="1351.75" y="-363.3" font-family="Times,serif" font-size="14.00">OS_xpc_bundle</text>
<polyline fill="none" stroke="black" points="1298.64,-356.5 1404.85,-356.5 "/>
</g>
<!-- OS_xpc_bundle&#45;&gt;OS_xpc_object -->
<g id="edge31" class="edge"><title>OS_xpc_bundle&#45;&gt;OS_xpc_object</title>
<path fill="none" stroke="black" d="M1404.88,-334.002C1407.85,-333.236 1410.82,-332.559 1413.75,-332 1942.44,-230.96 2098.45,-398.424 2630.5,-295.919"/>
<polygon fill="black" stroke="black" points="2631.2,-299.348 2640.35,-293.999 2629.86,-292.478 2631.2,-299.348"/>
</g>
<!-- OS_xpc_mach_recv -->
<g id="node33" class="node"><title>OS_xpc_mach_recv</title>
<path fill="none" stroke="black" d="M1434.99,-332.5C1434.99,-332.5 1540.5,-332.5 1540.5,-332.5 1546.5,-332.5 1552.5,-338.5 1552.5,-344.5 1552.5,-344.5 1552.5,-366.5 1552.5,-366.5 1552.5,-372.5 1546.5,-378.5 1540.5,-378.5 1540.5,-378.5 1434.99,-378.5 1434.99,-378.5 1428.99,-378.5 1422.99,-372.5 1422.99,-366.5 1422.99,-366.5 1422.99,-344.5 1422.99,-344.5 1422.99,-338.5 1428.99,-332.5 1434.99,-332.5"/>
<text text-anchor="middle" x="1487.75" y="-363.3" font-family="Times,serif" font-size="14.00">OS_xpc_mach_recv</text>
<polyline fill="none" stroke="black" points="1422.99,-356.5 1552.5,-356.5 "/>
</g>
<!-- OS_xpc_mach_recv&#45;&gt;OS_xpc_object -->
<g id="edge32" class="edge"><title>OS_xpc_mach_recv&#45;&gt;OS_xpc_object</title>
<path fill="none" stroke="black" d="M1552.89,-333.682C1555.87,-333.05 1558.83,-332.483 1561.75,-332 2027.83,-254.677 2163.14,-386.864 2630.3,-295.964"/>
<polygon fill="black" stroke="black" points="2631.21,-299.352 2640.35,-293.985 2629.86,-292.484 2631.21,-299.352"/>
</g>
<!-- OS_xpc_pipe -->
<g id="node34" class="node"><title>OS_xpc_pipe</title>
<path fill="none" stroke="black" d="M1582.64,-332.5C1582.64,-332.5 1650.85,-332.5 1650.85,-332.5 1656.85,-332.5 1662.85,-338.5 1662.85,-344.5 1662.85,-344.5 1662.85,-366.5 1662.85,-366.5 1662.85,-372.5 1656.85,-378.5 1650.85,-378.5 1650.85,-378.5 1582.64,-378.5 1582.64,-378.5 1576.64,-378.5 1570.64,-372.5 1570.64,-366.5 1570.64,-366.5 1570.64,-344.5 1570.64,-344.5 1570.64,-338.5 1576.64,-332.5 1582.64,-332.5"/>
<text text-anchor="middle" x="1616.75" y="-363.3" font-family="Times,serif" font-size="14.00">OS_xpc_pipe</text>
<polyline fill="none" stroke="black" points="1570.64,-356.5 1662.85,-356.5 "/>
</g>
<!-- OS_xpc_pipe&#45;&gt;OS_xpc_object -->
<g id="edge33" class="edge"><title>OS_xpc_pipe&#45;&gt;OS_xpc_object</title>
<path fill="none" stroke="black" d="M1662.89,-334.292C1665.85,-333.41 1668.82,-332.632 1671.75,-332 2085.81,-242.489 2211.17,-377.895 2630.39,-295.949"/>
<polygon fill="black" stroke="black" points="2631.22,-299.352 2640.34,-293.972 2629.85,-292.486 2631.22,-299.352"/>
</g>
<!-- OS_xpc_serializer -->
<g id="node35" class="node"><title>OS_xpc_serializer</title>
<path fill="none" stroke="black" d="M1693.04,-332.5C1693.04,-332.5 1788.45,-332.5 1788.45,-332.5 1794.45,-332.5 1800.45,-338.5 1800.45,-344.5 1800.45,-344.5 1800.45,-366.5 1800.45,-366.5 1800.45,-372.5 1794.45,-378.5 1788.45,-378.5 1788.45,-378.5 1693.04,-378.5 1693.04,-378.5 1687.04,-378.5 1681.04,-372.5 1681.04,-366.5 1681.04,-366.5 1681.04,-344.5 1681.04,-344.5 1681.04,-338.5 1687.04,-332.5 1693.04,-332.5"/>
<text text-anchor="middle" x="1740.75" y="-363.3" font-family="Times,serif" font-size="14.00">OS_xpc_serializer</text>
<polyline fill="none" stroke="black" points="1681.04,-356.5 1800.45,-356.5 "/>
</g>
<!-- OS_xpc_serializer&#45;&gt;OS_xpc_object -->
<g id="edge34" class="edge"><title>OS_xpc_serializer&#45;&gt;OS_xpc_object</title>
<path fill="none" stroke="black" d="M1800.58,-333.709C1803.32,-333.07 1806.05,-332.494 1808.75,-332 2165.6,-266.463 2271.1,-367.331 2630.45,-295.946"/>
<polygon fill="black" stroke="black" points="2631.23,-299.359 2640.34,-293.951 2629.84,-292.498 2631.23,-299.359"/>
</g>
<!-- OS_xpc_endpoint -->
<g id="node36" class="node"><title>OS_xpc_endpoint</title>
<path fill="none" stroke="black" d="M1830.19,-332.5C1830.19,-332.5 1923.3,-332.5 1923.3,-332.5 1929.3,-332.5 1935.3,-338.5 1935.3,-344.5 1935.3,-344.5 1935.3,-366.5 1935.3,-366.5 1935.3,-372.5 1929.3,-378.5 1923.3,-378.5 1923.3,-378.5 1830.19,-378.5 1830.19,-378.5 1824.19,-378.5 1818.19,-372.5 1818.19,-366.5 1818.19,-366.5 1818.19,-344.5 1818.19,-344.5 1818.19,-338.5 1824.19,-332.5 1830.19,-332.5"/>
<text text-anchor="middle" x="1876.75" y="-363.3" font-family="Times,serif" font-size="14.00">OS_xpc_endpoint</text>
<polyline fill="none" stroke="black" points="1818.19,-356.5 1935.3,-356.5 "/>
</g>
<!-- OS_xpc_endpoint&#45;&gt;OS_xpc_object -->
<g id="edge35" class="edge"><title>OS_xpc_endpoint&#45;&gt;OS_xpc_object</title>
<path fill="none" stroke="black" d="M1935.33,-333.824C1938.16,-333.142 1940.97,-332.528 1943.75,-332 2241.31,-275.349 2330.09,-356.705 2630.47,-295.951"/>
<polygon fill="black" stroke="black" points="2631.24,-299.366 2640.33,-293.921 2629.83,-292.51 2631.24,-299.366"/>
</g>
<!-- OS_xpc_error -->
<g id="node37" class="node"><title>OS_xpc_error</title>
<path fill="none" stroke="black" d="M1965.09,-332.5C1965.09,-332.5 2036.4,-332.5 2036.4,-332.5 2042.4,-332.5 2048.4,-338.5 2048.4,-344.5 2048.4,-344.5 2048.4,-366.5 2048.4,-366.5 2048.4,-372.5 2042.4,-378.5 2036.4,-378.5 2036.4,-378.5 1965.09,-378.5 1965.09,-378.5 1959.09,-378.5 1953.09,-372.5 1953.09,-366.5 1953.09,-366.5 1953.09,-344.5 1953.09,-344.5 1953.09,-338.5 1959.09,-332.5 1965.09,-332.5"/>
<text text-anchor="middle" x="2000.75" y="-363.3" font-family="Times,serif" font-size="14.00">OS_xpc_error</text>
<polyline fill="none" stroke="black" points="1953.09,-356.5 2048.4,-356.5 "/>
</g>
<!-- OS_xpc_error&#45;&gt;OS_xpc_object -->
<g id="edge36" class="edge"><title>OS_xpc_error&#45;&gt;OS_xpc_object</title>
<path fill="none" stroke="black" d="M2048.61,-334.384C2051.67,-333.479 2054.73,-332.671 2057.75,-332 2303.95,-277.126 2379.79,-347.556 2630.2,-296.017"/>
<polygon fill="black" stroke="black" points="2631.26,-299.37 2640.33,-293.886 2629.82,-292.52 2631.26,-299.37"/>
</g>
<!-- OS_xpc_dictionary -->
<g id="node38" class="node"><title>OS_xpc_dictionary</title>
<path fill="none" stroke="black" d="M2078.31,-332.5C2078.31,-332.5 2179.18,-332.5 2179.18,-332.5 2185.18,-332.5 2191.18,-338.5 2191.18,-344.5 2191.18,-344.5 2191.18,-366.5 2191.18,-366.5 2191.18,-372.5 2185.18,-378.5 2179.18,-378.5 2179.18,-378.5 2078.31,-378.5 2078.31,-378.5 2072.31,-378.5 2066.31,-372.5 2066.31,-366.5 2066.31,-366.5 2066.31,-344.5 2066.31,-344.5 2066.31,-338.5 2072.31,-332.5 2078.31,-332.5"/>
<text text-anchor="middle" x="2128.75" y="-363.3" font-family="Times,serif" font-size="14.00">OS_xpc_dictionary</text>
<polyline fill="none" stroke="black" points="2066.31,-356.5 2191.18,-356.5 "/>
</g>
<!-- OS_xpc_dictionary&#45;&gt;OS_xpc_object -->
<g id="edge37" class="edge"><title>OS_xpc_dictionary&#45;&gt;OS_xpc_object</title>
<path fill="none" stroke="black" d="M2191.37,-334.042C2194.52,-333.291 2197.66,-332.603 2200.75,-332 2386.17,-295.741 2442.29,-336.698 2630.38,-296.012"/>
<polygon fill="black" stroke="black" points="2631.3,-299.393 2640.31,-293.815 2629.79,-292.558 2631.3,-299.393"/>
</g>
<!-- OS_xpc_array -->
<g id="node39" class="node"><title>OS_xpc_array</title>
<path fill="none" stroke="black" d="M2221.31,-332.5C2221.31,-332.5 2294.18,-332.5 2294.18,-332.5 2300.18,-332.5 2306.18,-338.5 2306.18,-344.5 2306.18,-344.5 2306.18,-366.5 2306.18,-366.5 2306.18,-372.5 2300.18,-378.5 2294.18,-378.5 2294.18,-378.5 2221.31,-378.5 2221.31,-378.5 2215.31,-378.5 2209.31,-372.5 2209.31,-366.5 2209.31,-366.5 2209.31,-344.5 2209.31,-344.5 2209.31,-338.5 2215.31,-332.5 2221.31,-332.5"/>
<text text-anchor="middle" x="2257.75" y="-363.3" font-family="Times,serif" font-size="14.00">OS_xpc_array</text>
<polyline fill="none" stroke="black" points="2209.31,-356.5 2306.18,-356.5 "/>
</g>
<!-- OS_xpc_array&#45;&gt;OS_xpc_object -->
<g id="edge38" class="edge"><title>OS_xpc_array&#45;&gt;OS_xpc_object</title>
<path fill="none" stroke="black" d="M2306.29,-334.367C2309.12,-333.494 2311.96,-332.695 2314.75,-332 2449.1,-298.477 2491.88,-327.704 2630.16,-296.096"/>
<polygon fill="black" stroke="black" points="2631.35,-299.411 2640.29,-293.714 2629.75,-292.598 2631.35,-299.411"/>
</g>
<!-- OS_xpc_mach_send -->
<g id="node40" class="node"><title>OS_xpc_mach_send</title>
<path fill="none" stroke="black" d="M2336.2,-332.5C2336.2,-332.5 2443.29,-332.5 2443.29,-332.5 2449.29,-332.5 2455.29,-338.5 2455.29,-344.5 2455.29,-344.5 2455.29,-366.5 2455.29,-366.5 2455.29,-372.5 2449.29,-378.5 2443.29,-378.5 2443.29,-378.5 2336.2,-378.5 2336.2,-378.5 2330.2,-378.5 2324.2,-372.5 2324.2,-366.5 2324.2,-366.5 2324.2,-344.5 2324.2,-344.5 2324.2,-338.5 2330.2,-332.5 2336.2,-332.5"/>
<text text-anchor="middle" x="2389.75" y="-363.3" font-family="Times,serif" font-size="14.00">OS_xpc_mach_send</text>
<polyline fill="none" stroke="black" points="2324.2,-356.5 2455.29,-356.5 "/>
</g>
<!-- OS_xpc_mach_send&#45;&gt;OS_xpc_object -->
<g id="edge39" class="edge"><title>OS_xpc_mach_send&#45;&gt;OS_xpc_object</title>
<path fill="none" stroke="black" d="M2455.51,-334.449C2458.63,-333.6 2461.72,-332.779 2464.75,-332 2535.26,-313.853 2557.11,-317.073 2630.78,-296.098"/>
<polygon fill="black" stroke="black" points="2631.9,-299.419 2640.53,-293.271 2629.95,-292.696 2631.9,-299.419"/>
</g>
<!-- OS_xpc_shmem -->
<g id="node41" class="node"><title>OS_xpc_shmem</title>
<path fill="none" stroke="black" d="M2485.47,-332.5C2485.47,-332.5 2570.02,-332.5 2570.02,-332.5 2576.02,-332.5 2582.02,-338.5 2582.02,-344.5 2582.02,-344.5 2582.02,-366.5 2582.02,-366.5 2582.02,-372.5 2576.02,-378.5 2570.02,-378.5 2570.02,-378.5 2485.47,-378.5 2485.47,-378.5 2479.47,-378.5 2473.47,-372.5 2473.47,-366.5 2473.47,-366.5 2473.47,-344.5 2473.47,-344.5 2473.47,-338.5 2479.47,-332.5 2485.47,-332.5"/>
<text text-anchor="middle" x="2527.75" y="-363.3" font-family="Times,serif" font-size="14.00">OS_xpc_shmem</text>
<polyline fill="none" stroke="black" points="2473.47,-356.5 2582.02,-356.5 "/>
</g>
<!-- OS_xpc_shmem&#45;&gt;OS_xpc_object -->
<g id="edge40" class="edge"><title>OS_xpc_shmem&#45;&gt;OS_xpc_object</title>
<path fill="none" stroke="black" d="M2572.56,-332.366C2592.72,-322.41 2616.68,-310.576 2637.81,-300.138"/>
<polygon fill="black" stroke="black" points="2639.57,-303.173 2646.99,-295.607 2636.47,-296.897 2639.57,-303.173"/>
</g>
<!-- OS_xpc_fd -->
<g id="node42" class="node"><title>OS_xpc_fd</title>
<path fill="none" stroke="black" d="M2611.86,-332.5C2611.86,-332.5 2667.63,-332.5 2667.63,-332.5 2673.63,-332.5 2679.63,-338.5 2679.63,-344.5 2679.63,-344.5 2679.63,-366.5 2679.63,-366.5 2679.63,-372.5 2673.63,-378.5 2667.63,-378.5 2667.63,-378.5 2611.86,-378.5 2611.86,-378.5 2605.86,-378.5 2599.86,-372.5 2599.86,-366.5 2599.86,-366.5 2599.86,-344.5 2599.86,-344.5 2599.86,-338.5 2605.86,-332.5 2611.86,-332.5"/>
<text text-anchor="middle" x="2639.75" y="-363.3" font-family="Times,serif" font-size="14.00">OS_xpc_fd</text>
<polyline fill="none" stroke="black" points="2599.86,-356.5 2679.63,-356.5 "/>
</g>
<!-- OS_xpc_fd&#45;&gt;OS_xpc_object -->
<g id="edge41" class="edge"><title>OS_xpc_fd&#45;&gt;OS_xpc_object</title>
<path fill="none" stroke="black" d="M2653.95,-332.366C2659.51,-323.705 2665.99,-313.622 2671.99,-304.274"/>
<polygon fill="black" stroke="black" points="2675.1,-305.913 2677.55,-295.607 2669.21,-302.131 2675.1,-305.913"/>
</g>
<!-- OS_xpc_uuid -->
<g id="node43" class="node"><title>OS_xpc_uuid</title>
<path fill="none" stroke="black" d="M2709.25,-332.5C2709.25,-332.5 2778.25,-332.5 2778.25,-332.5 2784.25,-332.5 2790.25,-338.5 2790.25,-344.5 2790.25,-344.5 2790.25,-366.5 2790.25,-366.5 2790.25,-372.5 2784.25,-378.5 2778.25,-378.5 2778.25,-378.5 2709.25,-378.5 2709.25,-378.5 2703.25,-378.5 2697.25,-372.5 2697.25,-366.5 2697.25,-366.5 2697.25,-344.5 2697.25,-344.5 2697.25,-338.5 2703.25,-332.5 2709.25,-332.5"/>
<text text-anchor="middle" x="2743.75" y="-363.3" font-family="Times,serif" font-size="14.00">OS_xpc_uuid</text>
<polyline fill="none" stroke="black" points="2697.25,-356.5 2790.25,-356.5 "/>
</g>
<!-- OS_xpc_uuid&#45;&gt;OS_xpc_object -->
<g id="edge42" class="edge"><title>OS_xpc_uuid&#45;&gt;OS_xpc_object</title>
<path fill="none" stroke="black" d="M2729.54,-332.366C2723.98,-323.705 2717.5,-313.622 2711.5,-304.274"/>
<polygon fill="black" stroke="black" points="2714.28,-302.131 2705.94,-295.607 2708.39,-305.913 2714.28,-302.131"/>
</g>
<!-- OS_xpc_string -->
<g id="node44" class="node"><title>OS_xpc_string</title>
<path fill="none" stroke="black" d="M2820.75,-332.5C2820.75,-332.5 2896.75,-332.5 2896.75,-332.5 2902.75,-332.5 2908.75,-338.5 2908.75,-344.5 2908.75,-344.5 2908.75,-366.5 2908.75,-366.5 2908.75,-372.5 2902.75,-378.5 2896.75,-378.5 2896.75,-378.5 2820.75,-378.5 2820.75,-378.5 2814.75,-378.5 2808.75,-372.5 2808.75,-366.5 2808.75,-366.5 2808.75,-344.5 2808.75,-344.5 2808.75,-338.5 2814.75,-332.5 2820.75,-332.5"/>
<text text-anchor="middle" x="2858.75" y="-363.3" font-family="Times,serif" font-size="14.00">OS_xpc_string</text>
<polyline fill="none" stroke="black" points="2808.75,-356.5 2908.75,-356.5 "/>
</g>
<!-- OS_xpc_string&#45;&gt;OS_xpc_object -->
<g id="edge43" class="edge"><title>OS_xpc_string&#45;&gt;OS_xpc_object</title>
<path fill="none" stroke="black" d="M2813.11,-332.366C2792.49,-322.366 2767.97,-310.47 2746.38,-299.998"/>
<polygon fill="black" stroke="black" points="2747.85,-296.822 2737.32,-295.607 2744.79,-303.12 2747.85,-296.822"/>
</g>
<!-- OS_xpc_data -->
<g id="node45" class="node"><title>OS_xpc_data</title>
<path fill="none" stroke="black" d="M2939.03,-332.5C2939.03,-332.5 3006.46,-332.5 3006.46,-332.5 3012.46,-332.5 3018.46,-338.5 3018.46,-344.5 3018.46,-344.5 3018.46,-366.5 3018.46,-366.5 3018.46,-372.5 3012.46,-378.5 3006.46,-378.5 3006.46,-378.5 2939.03,-378.5 2939.03,-378.5 2933.03,-378.5 2927.03,-372.5 2927.03,-366.5 2927.03,-366.5 2927.03,-344.5 2927.03,-344.5 2927.03,-338.5 2933.03,-332.5 2939.03,-332.5"/>
<text text-anchor="middle" x="2972.75" y="-363.3" font-family="Times,serif" font-size="14.00">OS_xpc_data</text>
<polyline fill="none" stroke="black" points="2927.03,-356.5 3018.46,-356.5 "/>
</g>
<!-- OS_xpc_data&#45;&gt;OS_xpc_object -->
<g id="edge44" class="edge"><title>OS_xpc_data&#45;&gt;OS_xpc_object</title>
<path fill="none" stroke="black" d="M2926.75,-335C2923.72,-333.929 2920.7,-332.917 2917.75,-332 2848.6,-310.54 2826.01,-316.73 2752.66,-296.069"/>
<polygon fill="black" stroke="black" points="2753.54,-292.681 2742.97,-293.267 2751.6,-299.405 2753.54,-292.681"/>
</g>
<!-- OS_xpc_date -->
<g id="node46" class="node"><title>OS_xpc_date</title>
<path fill="none" stroke="black" d="M3048.03,-332.5C3048.03,-332.5 3115.46,-332.5 3115.46,-332.5 3121.46,-332.5 3127.46,-338.5 3127.46,-344.5 3127.46,-344.5 3127.46,-366.5 3127.46,-366.5 3127.46,-372.5 3121.46,-378.5 3115.46,-378.5 3115.46,-378.5 3048.03,-378.5 3048.03,-378.5 3042.03,-378.5 3036.03,-372.5 3036.03,-366.5 3036.03,-366.5 3036.03,-344.5 3036.03,-344.5 3036.03,-338.5 3042.03,-332.5 3048.03,-332.5"/>
<text text-anchor="middle" x="3081.75" y="-363.3" font-family="Times,serif" font-size="14.00">OS_xpc_date</text>
<polyline fill="none" stroke="black" points="3036.03,-356.5 3127.46,-356.5 "/>
</g>
<!-- OS_xpc_date&#45;&gt;OS_xpc_object -->
<g id="edge45" class="edge"><title>OS_xpc_date&#45;&gt;OS_xpc_object</title>
<path fill="none" stroke="black" d="M3035.78,-334.405C3033.08,-333.522 3030.39,-332.711 3027.75,-332 2911.42,-300.775 2873.76,-324.584 2753.2,-296.089"/>
<polygon fill="black" stroke="black" points="2753.76,-292.624 2743.22,-293.657 2752.1,-299.425 2753.76,-292.624"/>
</g>
<!-- OS_xpc_pointer -->
<g id="node47" class="node"><title>OS_xpc_pointer</title>
<path fill="none" stroke="black" d="M3157.86,-332.5C3157.86,-332.5 3241.63,-332.5 3241.63,-332.5 3247.63,-332.5 3253.63,-338.5 3253.63,-344.5 3253.63,-344.5 3253.63,-366.5 3253.63,-366.5 3253.63,-372.5 3247.63,-378.5 3241.63,-378.5 3241.63,-378.5 3157.86,-378.5 3157.86,-378.5 3151.86,-378.5 3145.86,-372.5 3145.86,-366.5 3145.86,-366.5 3145.86,-344.5 3145.86,-344.5 3145.86,-338.5 3151.86,-332.5 3157.86,-332.5"/>
<text text-anchor="middle" x="3199.75" y="-363.3" font-family="Times,serif" font-size="14.00">OS_xpc_pointer</text>
<polyline fill="none" stroke="black" points="3145.86,-356.5 3253.63,-356.5 "/>
</g>
<!-- OS_xpc_pointer&#45;&gt;OS_xpc_object -->
<g id="edge46" class="edge"><title>OS_xpc_pointer&#45;&gt;OS_xpc_object</title>
<path fill="none" stroke="black" d="M3145.7,-334.232C3142.69,-333.406 3139.69,-332.653 3136.75,-332 2972.16,-295.518 2921.17,-333.026 2753.11,-296.022"/>
<polygon fill="black" stroke="black" points="2753.71,-292.57 2743.19,-293.781 2752.17,-299.398 2753.71,-292.57"/>
</g>
<!-- OS_xpc_double -->
<g id="node48" class="node"><title>OS_xpc_double</title>
<path fill="none" stroke="black" d="M3283.64,-332.5C3283.64,-332.5 3365.85,-332.5 3365.85,-332.5 3371.85,-332.5 3377.85,-338.5 3377.85,-344.5 3377.85,-344.5 3377.85,-366.5 3377.85,-366.5 3377.85,-372.5 3371.85,-378.5 3365.85,-378.5 3365.85,-378.5 3283.64,-378.5 3283.64,-378.5 3277.64,-378.5 3271.64,-372.5 3271.64,-366.5 3271.64,-366.5 3271.64,-344.5 3271.64,-344.5 3271.64,-338.5 3277.64,-332.5 3283.64,-332.5"/>
<text text-anchor="middle" x="3324.75" y="-363.3" font-family="Times,serif" font-size="14.00">OS_xpc_double</text>
<polyline fill="none" stroke="black" points="3271.64,-356.5 3377.85,-356.5 "/>
</g>
<!-- OS_xpc_double&#45;&gt;OS_xpc_object -->
<g id="edge47" class="edge"><title>OS_xpc_double&#45;&gt;OS_xpc_object</title>
<path fill="none" stroke="black" d="M3271.59,-334.147C3268.62,-333.343 3265.66,-332.618 3262.75,-332 3043.3,-285.404 2976.16,-342.746 2753.22,-296.013"/>
<polygon fill="black" stroke="black" points="2753.68,-292.534 2743.17,-293.86 2752.21,-299.378 2753.68,-292.534"/>
</g>
<!-- OS_xpc_uint64 -->
<g id="node49" class="node"><title>OS_xpc_uint64</title>
<path fill="none" stroke="black" d="M3407.8,-332.5C3407.8,-332.5 3487.69,-332.5 3487.69,-332.5 3493.69,-332.5 3499.69,-338.5 3499.69,-344.5 3499.69,-344.5 3499.69,-366.5 3499.69,-366.5 3499.69,-372.5 3493.69,-378.5 3487.69,-378.5 3487.69,-378.5 3407.8,-378.5 3407.8,-378.5 3401.8,-378.5 3395.8,-372.5 3395.8,-366.5 3395.8,-366.5 3395.8,-344.5 3395.8,-344.5 3395.8,-338.5 3401.8,-332.5 3407.8,-332.5"/>
<text text-anchor="middle" x="3447.75" y="-363.3" font-family="Times,serif" font-size="14.00">OS_xpc_uint64</text>
<polyline fill="none" stroke="black" points="3395.8,-356.5 3499.69,-356.5 "/>
</g>
<!-- OS_xpc_uint64&#45;&gt;OS_xpc_object -->
<g id="edge48" class="edge"><title>OS_xpc_uint64&#45;&gt;OS_xpc_object</title>
<path fill="none" stroke="black" d="M3395.46,-334.096C3392.54,-333.306 3389.62,-332.597 3386.75,-332 3113.23,-275.131 3030.29,-352.439 2753.1,-295.972"/>
<polygon fill="black" stroke="black" points="2753.66,-292.514 2743.16,-293.906 2752.24,-299.367 2753.66,-292.514"/>
</g>
<!-- OS_xpc_int64 -->
<g id="node50" class="node"><title>OS_xpc_int64</title>
<path fill="none" stroke="black" d="M3529.3,-332.5C3529.3,-332.5 3602.19,-332.5 3602.19,-332.5 3608.19,-332.5 3614.19,-338.5 3614.19,-344.5 3614.19,-344.5 3614.19,-366.5 3614.19,-366.5 3614.19,-372.5 3608.19,-378.5 3602.19,-378.5 3602.19,-378.5 3529.3,-378.5 3529.3,-378.5 3523.3,-378.5 3517.3,-372.5 3517.3,-366.5 3517.3,-366.5 3517.3,-344.5 3517.3,-344.5 3517.3,-338.5 3523.3,-332.5 3529.3,-332.5"/>
<text text-anchor="middle" x="3565.75" y="-363.3" font-family="Times,serif" font-size="14.00">OS_xpc_int64</text>
<polyline fill="none" stroke="black" points="3517.3,-356.5 3614.19,-356.5 "/>
</g>
<!-- OS_xpc_int64&#45;&gt;OS_xpc_object -->
<g id="edge49" class="edge"><title>OS_xpc_int64&#45;&gt;OS_xpc_object</title>
<path fill="none" stroke="black" d="M3517.26,-334.147C3514.4,-333.33 3511.55,-332.604 3508.75,-332 3182.66,-261.904 3083.58,-361.965 2753,-295.94"/>
<polygon fill="black" stroke="black" points="2753.65,-292.5 2743.15,-293.938 2752.26,-299.36 2753.65,-292.5"/>
</g>
<!-- OS_xpc_bool -->
<g id="node51" class="node"><title>OS_xpc_bool</title>
<path fill="none" stroke="black" d="M3644.25,-332.5C3644.25,-332.5 3713.25,-332.5 3713.25,-332.5 3719.25,-332.5 3725.25,-338.5 3725.25,-344.5 3725.25,-344.5 3725.25,-366.5 3725.25,-366.5 3725.25,-372.5 3719.25,-378.5 3713.25,-378.5 3713.25,-378.5 3644.25,-378.5 3644.25,-378.5 3638.25,-378.5 3632.25,-372.5 3632.25,-366.5 3632.25,-366.5 3632.25,-344.5 3632.25,-344.5 3632.25,-338.5 3638.25,-332.5 3644.25,-332.5"/>
<text text-anchor="middle" x="3678.75" y="-363.3" font-family="Times,serif" font-size="14.00">OS_xpc_bool</text>
<polyline fill="none" stroke="black" points="3632.25,-356.5 3725.25,-356.5 "/>
</g>
<!-- OS_xpc_bool&#45;&gt;OS_xpc_object -->
<g id="edge50" class="edge"><title>OS_xpc_bool&#45;&gt;OS_xpc_object</title>
<path fill="none" stroke="black" d="M3632.06,-334.399C3628.94,-333.475 3625.82,-332.66 3622.75,-332 3247.19,-251.294 3133.4,-370.911 2753.04,-295.941"/>
<polygon fill="black" stroke="black" points="2753.64,-292.492 2743.15,-293.959 2752.27,-299.355 2753.64,-292.492"/>
</g>
<!-- OS_xpc_null -->
<g id="node52" class="node"><title>OS_xpc_null</title>
<path fill="none" stroke="black" d="M3754.8,-332.5C3754.8,-332.5 3820.69,-332.5 3820.69,-332.5 3826.69,-332.5 3832.69,-338.5 3832.69,-344.5 3832.69,-344.5 3832.69,-366.5 3832.69,-366.5 3832.69,-372.5 3826.69,-378.5 3820.69,-378.5 3820.69,-378.5 3754.8,-378.5 3754.8,-378.5 3748.8,-378.5 3742.8,-372.5 3742.8,-366.5 3742.8,-366.5 3742.8,-344.5 3742.8,-344.5 3742.8,-338.5 3748.8,-332.5 3754.8,-332.5"/>
<text text-anchor="middle" x="3787.75" y="-363.3" font-family="Times,serif" font-size="14.00">OS_xpc_null</text>
<polyline fill="none" stroke="black" points="3742.8,-356.5 3832.69,-356.5 "/>
</g>
<!-- OS_xpc_null&#45;&gt;OS_xpc_object -->
<g id="edge51" class="edge"><title>OS_xpc_null&#45;&gt;OS_xpc_object</title>
<path fill="none" stroke="black" d="M3742.75,-334.379C3739.74,-333.46 3736.72,-332.652 3733.75,-332 3310.36,-239.225 3181.92,-379.63 2753.01,-295.929"/>
<polygon fill="black" stroke="black" points="2753.64,-292.485 2743.15,-293.975 2752.28,-299.352 2753.64,-292.485"/>
</g>
<!-- OS_xpc_service -->
<g id="node53" class="node"><title>OS_xpc_service</title>
<path fill="none" stroke="black" d="M3862.87,-332.5C3862.87,-332.5 3946.62,-332.5 3946.62,-332.5 3952.62,-332.5 3958.62,-338.5 3958.62,-344.5 3958.62,-344.5 3958.62,-366.5 3958.62,-366.5 3958.62,-372.5 3952.62,-378.5 3946.62,-378.5 3946.62,-378.5 3862.87,-378.5 3862.87,-378.5 3856.87,-378.5 3850.87,-372.5 3850.87,-366.5 3850.87,-366.5 3850.87,-344.5 3850.87,-344.5 3850.87,-338.5 3856.87,-332.5 3862.87,-332.5"/>
<text text-anchor="middle" x="3904.75" y="-363.3" font-family="Times,serif" font-size="14.00">OS_xpc_service</text>
<polyline fill="none" stroke="black" points="3850.87,-356.5 3958.62,-356.5 "/>
</g>
<!-- OS_xpc_service&#45;&gt;OS_xpc_object -->
<g id="edge52" class="edge"><title>OS_xpc_service&#45;&gt;OS_xpc_object</title>
<path fill="none" stroke="black" d="M3850.75,-334.016C3847.73,-333.246 3844.71,-332.564 3841.75,-332 3368.83,-242.021 3229.09,-388.32 2753.02,-295.929"/>
<polygon fill="black" stroke="black" points="2753.63,-292.482 2743.14,-293.988 2752.28,-299.351 2753.63,-292.482"/>
</g>
<!-- OS_xpc_connection -->
<g id="node54" class="node"><title>OS_xpc_connection</title>
<path fill="none" stroke="black" d="M3988.98,-332.5C3988.98,-332.5 4094.51,-332.5 4094.51,-332.5 4100.51,-332.5 4106.51,-338.5 4106.51,-344.5 4106.51,-344.5 4106.51,-366.5 4106.51,-366.5 4106.51,-372.5 4100.51,-378.5 4094.51,-378.5 4094.51,-378.5 3988.98,-378.5 3988.98,-378.5 3982.98,-378.5 3976.98,-372.5 3976.98,-366.5 3976.98,-366.5 3976.98,-344.5 3976.98,-344.5 3976.98,-338.5 3982.98,-332.5 3988.98,-332.5"/>
<text text-anchor="middle" x="4041.75" y="-363.3" font-family="Times,serif" font-size="14.00">OS_xpc_connection</text>
<polyline fill="none" stroke="black" points="3976.98,-356.5 4106.51,-356.5 "/>
</g>
<!-- OS_xpc_connection&#45;&gt;OS_xpc_object -->
<g id="edge53" class="edge"><title>OS_xpc_connection&#45;&gt;OS_xpc_object</title>
<path fill="none" stroke="black" d="M3976.6,-333.667C3973.62,-333.039 3970.66,-332.478 3967.75,-332 3704.22,-288.827 3033.64,-346.72 2753.35,-295.932"/>
<polygon fill="black" stroke="black" points="2753.62,-292.421 2743.14,-293.999 2752.32,-299.298 2753.62,-292.421"/>
</g>
<!-- OS_voucher -->
<g id="node55" class="node"><title>OS_voucher</title>
<path fill="none" stroke="black" d="M2772.75,-249.5C2772.75,-249.5 2834.74,-249.5 2834.74,-249.5 2840.74,-249.5 2846.74,-255.5 2846.74,-261.5 2846.74,-261.5 2846.74,-283.5 2846.74,-283.5 2846.74,-289.5 2840.74,-295.5 2834.74,-295.5 2834.74,-295.5 2772.75,-295.5 2772.75,-295.5 2766.75,-295.5 2760.75,-289.5 2760.75,-283.5 2760.75,-283.5 2760.75,-261.5 2760.75,-261.5 2760.75,-255.5 2766.75,-249.5 2772.75,-249.5"/>
<text text-anchor="middle" x="2803.75" y="-280.3" font-family="Times,serif" font-size="14.00">OS_voucher</text>
<polyline fill="none" stroke="black" points="2760.75,-273.5 2846.74,-273.5 "/>
</g>
<!-- OS_voucher&#45;&gt;OS_object -->
<g id="edge54" class="edge"><title>OS_voucher&#45;&gt;OS_object</title>
<path fill="none" stroke="black" d="M2760.73,-251.535C2757.72,-250.562 2754.71,-249.701 2751.75,-249 2557.2,-203.042 1927.64,-192.911 1748.63,-190.936"/>
<polygon fill="black" stroke="black" points="1748.51,-187.435 1738.47,-190.827 1748.44,-194.434 1748.51,-187.435"/>
</g>
<!-- OS_dispatch_object -->
<g id="node56" class="node"><title>OS_dispatch_object</title>
<path fill="none" stroke="black" d="M4746.37,-249.5C4746.37,-249.5 4851.12,-249.5 4851.12,-249.5 4857.12,-249.5 4863.12,-255.5 4863.12,-261.5 4863.12,-261.5 4863.12,-283.5 4863.12,-283.5 4863.12,-289.5 4857.12,-295.5 4851.12,-295.5 4851.12,-295.5 4746.37,-295.5 4746.37,-295.5 4740.37,-295.5 4734.37,-289.5 4734.37,-283.5 4734.37,-283.5 4734.37,-261.5 4734.37,-261.5 4734.37,-255.5 4740.37,-249.5 4746.37,-249.5"/>
<text text-anchor="middle" x="4798.75" y="-280.3" font-family="Times,serif" font-size="14.00">OS_dispatch_object</text>
<polyline fill="none" stroke="black" points="4734.37,-273.5 4863.12,-273.5 "/>
</g>
<!-- OS_dispatch_object&#45;&gt;OS_object -->
<g id="edge55" class="edge"><title>OS_dispatch_object&#45;&gt;OS_object</title>
<path fill="none" stroke="black" d="M4734.04,-269.808C4325.01,-259.114 2104,-201.043 1748.7,-191.754"/>
<polygon fill="black" stroke="black" points="1748.58,-188.25 1738.49,-191.487 1748.4,-195.247 1748.58,-188.25"/>
</g>
<!-- OS_dispatch_disk -->
<g id="node57" class="node"><title>OS_dispatch_disk</title>
<path fill="none" stroke="black" d="M4136.8,-332.5C4136.8,-332.5 4230.69,-332.5 4230.69,-332.5 4236.69,-332.5 4242.69,-338.5 4242.69,-344.5 4242.69,-344.5 4242.69,-366.5 4242.69,-366.5 4242.69,-372.5 4236.69,-378.5 4230.69,-378.5 4230.69,-378.5 4136.8,-378.5 4136.8,-378.5 4130.8,-378.5 4124.8,-372.5 4124.8,-366.5 4124.8,-366.5 4124.8,-344.5 4124.8,-344.5 4124.8,-338.5 4130.8,-332.5 4136.8,-332.5"/>
<text text-anchor="middle" x="4183.75" y="-363.3" font-family="Times,serif" font-size="14.00">OS_dispatch_disk</text>
<polyline fill="none" stroke="black" points="4124.8,-356.5 4242.69,-356.5 "/>
</g>
<!-- OS_dispatch_disk&#45;&gt;OS_dispatch_object -->
<g id="edge56" class="edge"><title>OS_dispatch_disk&#45;&gt;OS_dispatch_object</title>
<path fill="none" stroke="black" d="M4242.88,-334.111C4245.86,-333.341 4248.83,-332.631 4251.75,-332 4417.97,-296.041 4617.61,-281.803 4723.75,-276.466"/>
<polygon fill="black" stroke="black" points="4724.22,-279.947 4734.04,-275.962 4723.88,-272.956 4724.22,-279.947"/>
</g>
<!-- OS_dispatch_operation -->
<g id="node58" class="node"><title>OS_dispatch_operation</title>
<path fill="none" stroke="black" d="M4273.03,-332.5C4273.03,-332.5 4396.46,-332.5 4396.46,-332.5 4402.46,-332.5 4408.46,-338.5 4408.46,-344.5 4408.46,-344.5 4408.46,-366.5 4408.46,-366.5 4408.46,-372.5 4402.46,-378.5 4396.46,-378.5 4396.46,-378.5 4273.03,-378.5 4273.03,-378.5 4267.03,-378.5 4261.03,-372.5 4261.03,-366.5 4261.03,-366.5 4261.03,-344.5 4261.03,-344.5 4261.03,-338.5 4267.03,-332.5 4273.03,-332.5"/>
<text text-anchor="middle" x="4334.75" y="-363.3" font-family="Times,serif" font-size="14.00">OS_dispatch_operation</text>
<polyline fill="none" stroke="black" points="4261.03,-356.5 4408.46,-356.5 "/>
</g>
<!-- OS_dispatch_operation&#45;&gt;OS_dispatch_object -->
<g id="edge57" class="edge"><title>OS_dispatch_operation&#45;&gt;OS_dispatch_object</title>
<path fill="none" stroke="black" d="M4408.85,-333.754C4411.51,-333.141 4414.15,-332.554 4416.75,-332 4522.56,-309.459 4646.65,-292.103 4723.99,-282.344"/>
<polygon fill="black" stroke="black" points="4724.63,-285.791 4734.12,-281.076 4723.77,-278.846 4724.63,-285.791"/>
</g>
<!-- OS_dispatch_io -->
<g id="node59" class="node"><title>OS_dispatch_io</title>
<path fill="none" stroke="black" d="M4438.02,-332.5C4438.02,-332.5 4519.47,-332.5 4519.47,-332.5 4525.47,-332.5 4531.47,-338.5 4531.47,-344.5 4531.47,-344.5 4531.47,-366.5 4531.47,-366.5 4531.47,-372.5 4525.47,-378.5 4519.47,-378.5 4519.47,-378.5 4438.02,-378.5 4438.02,-378.5 4432.02,-378.5 4426.02,-372.5 4426.02,-366.5 4426.02,-366.5 4426.02,-344.5 4426.02,-344.5 4426.02,-338.5 4432.02,-332.5 4438.02,-332.5"/>
<text text-anchor="middle" x="4478.75" y="-363.3" font-family="Times,serif" font-size="14.00">OS_dispatch_io</text>
<polyline fill="none" stroke="black" points="4426.02,-356.5 4531.47,-356.5 "/>
</g>
<!-- OS_dispatch_io&#45;&gt;OS_dispatch_object -->
<g id="edge58" class="edge"><title>OS_dispatch_io&#45;&gt;OS_dispatch_object</title>
<path fill="none" stroke="black" d="M4531.5,-334.558C4534.28,-333.66 4537.04,-332.801 4539.75,-332 4601.2,-313.81 4672.3,-298.122 4724.44,-287.585"/>
<polygon fill="black" stroke="black" points="4725.16,-291.01 4734.28,-285.612 4723.79,-284.147 4725.16,-291.01"/>
</g>
<!-- OS_dispatch_mach_msg -->
<g id="node60" class="node"><title>OS_dispatch_mach_msg</title>
<path fill="none" stroke="black" d="M4561.14,-332.5C4561.14,-332.5 4692.35,-332.5 4692.35,-332.5 4698.35,-332.5 4704.35,-338.5 4704.35,-344.5 4704.35,-344.5 4704.35,-366.5 4704.35,-366.5 4704.35,-372.5 4698.35,-378.5 4692.35,-378.5 4692.35,-378.5 4561.14,-378.5 4561.14,-378.5 4555.14,-378.5 4549.14,-372.5 4549.14,-366.5 4549.14,-366.5 4549.14,-344.5 4549.14,-344.5 4549.14,-338.5 4555.14,-332.5 4561.14,-332.5"/>
<text text-anchor="middle" x="4626.75" y="-363.3" font-family="Times,serif" font-size="14.00">OS_dispatch_mach_msg</text>
<polyline fill="none" stroke="black" points="4549.14,-356.5 4704.35,-356.5 "/>
</g>
<!-- OS_dispatch_mach_msg&#45;&gt;OS_dispatch_object -->
<g id="edge59" class="edge"><title>OS_dispatch_mach_msg&#45;&gt;OS_dispatch_object</title>
<path fill="none" stroke="black" d="M4673.74,-332.366C4694.98,-322.366 4720.24,-310.47 4742.48,-299.998"/>
<polygon fill="black" stroke="black" points="4744.25,-303.034 4751.8,-295.607 4741.26,-296.701 4744.25,-303.034"/>
</g>
<!-- OS_dispatch_queue_attr -->
<g id="node61" class="node"><title>OS_dispatch_queue_attr</title>
<path fill="none" stroke="black" d="M4733.93,-332.5C4733.93,-332.5 4863.56,-332.5 4863.56,-332.5 4869.56,-332.5 4875.56,-338.5 4875.56,-344.5 4875.56,-344.5 4875.56,-366.5 4875.56,-366.5 4875.56,-372.5 4869.56,-378.5 4863.56,-378.5 4863.56,-378.5 4733.93,-378.5 4733.93,-378.5 4727.93,-378.5 4721.93,-372.5 4721.93,-366.5 4721.93,-366.5 4721.93,-344.5 4721.93,-344.5 4721.93,-338.5 4727.93,-332.5 4733.93,-332.5"/>
<text text-anchor="middle" x="4798.75" y="-363.3" font-family="Times,serif" font-size="14.00">OS_dispatch_queue_attr</text>
<polyline fill="none" stroke="black" points="4721.93,-356.5 4875.56,-356.5 "/>
</g>
<!-- OS_dispatch_queue_attr&#45;&gt;OS_dispatch_object -->
<g id="edge60" class="edge"><title>OS_dispatch_queue_attr&#45;&gt;OS_dispatch_object</title>
<path fill="none" stroke="black" d="M4798.75,-332.366C4798.75,-324.152 4798.75,-314.658 4798.75,-305.725"/>
<polygon fill="black" stroke="black" points="4802.25,-305.607 4798.75,-295.607 4795.25,-305.607 4802.25,-305.607"/>
</g>
<!-- OS_dispatch_group -->
<g id="node62" class="node"><title>OS_dispatch_group</title>
<path fill="none" stroke="black" d="M4905.14,-332.5C4905.14,-332.5 5008.35,-332.5 5008.35,-332.5 5014.35,-332.5 5020.35,-338.5 5020.35,-344.5 5020.35,-344.5 5020.35,-366.5 5020.35,-366.5 5020.35,-372.5 5014.35,-378.5 5008.35,-378.5 5008.35,-378.5 4905.14,-378.5 4905.14,-378.5 4899.14,-378.5 4893.14,-372.5 4893.14,-366.5 4893.14,-366.5 4893.14,-344.5 4893.14,-344.5 4893.14,-338.5 4899.14,-332.5 4905.14,-332.5"/>
<text text-anchor="middle" x="4956.75" y="-363.3" font-family="Times,serif" font-size="14.00">OS_dispatch_group</text>
<polyline fill="none" stroke="black" points="4893.14,-356.5 5020.35,-356.5 "/>
</g>
<!-- OS_dispatch_group&#45;&gt;OS_dispatch_object -->
<g id="edge61" class="edge"><title>OS_dispatch_group&#45;&gt;OS_dispatch_object</title>
<path fill="none" stroke="black" d="M4913.57,-332.366C4894.24,-322.455 4871.27,-310.682 4850.98,-300.279"/>
<polygon fill="black" stroke="black" points="4852.36,-297.054 4841.87,-295.607 4849.17,-303.283 4852.36,-297.054"/>
</g>
<!-- OS_dispatch_semaphore -->
<g id="node63" class="node"><title>OS_dispatch_semaphore</title>
<path fill="none" stroke="black" d="M5050.15,-332.5C5050.15,-332.5 5181.34,-332.5 5181.34,-332.5 5187.34,-332.5 5193.34,-338.5 5193.34,-344.5 5193.34,-344.5 5193.34,-366.5 5193.34,-366.5 5193.34,-372.5 5187.34,-378.5 5181.34,-378.5 5181.34,-378.5 5050.15,-378.5 5050.15,-378.5 5044.15,-378.5 5038.15,-372.5 5038.15,-366.5 5038.15,-366.5 5038.15,-344.5 5038.15,-344.5 5038.15,-338.5 5044.15,-332.5 5050.15,-332.5"/>
<text text-anchor="middle" x="5115.75" y="-363.3" font-family="Times,serif" font-size="14.00">OS_dispatch_semaphore</text>
<polyline fill="none" stroke="black" points="5038.15,-356.5 5193.34,-356.5 "/>
</g>
<!-- OS_dispatch_semaphore&#45;&gt;OS_dispatch_object -->
<g id="edge62" class="edge"><title>OS_dispatch_semaphore&#45;&gt;OS_dispatch_object</title>
<path fill="none" stroke="black" d="M5037.94,-334.114C5035.17,-333.399 5032.44,-332.693 5029.75,-332 4977.49,-318.548 4918.52,-303.618 4873.24,-292.207"/>
<polygon fill="black" stroke="black" points="4874.05,-288.803 4863.5,-289.755 4872.34,-295.591 4874.05,-288.803"/>
</g>
<!-- OS_dispatch_mach -->
<g id="node64" class="node"><title>OS_dispatch_mach</title>
<path fill="none" stroke="black" d="M5223.31,-332.5C5223.31,-332.5 5324.18,-332.5 5324.18,-332.5 5330.18,-332.5 5336.18,-338.5 5336.18,-344.5 5336.18,-344.5 5336.18,-366.5 5336.18,-366.5 5336.18,-372.5 5330.18,-378.5 5324.18,-378.5 5324.18,-378.5 5223.31,-378.5 5223.31,-378.5 5217.31,-378.5 5211.31,-372.5 5211.31,-366.5 5211.31,-366.5 5211.31,-344.5 5211.31,-344.5 5211.31,-338.5 5217.31,-332.5 5223.31,-332.5"/>
<text text-anchor="middle" x="5273.75" y="-363.3" font-family="Times,serif" font-size="14.00">OS_dispatch_mach</text>
<polyline fill="none" stroke="black" points="5211.31,-356.5 5336.18,-356.5 "/>
</g>
<!-- OS_dispatch_mach&#45;&gt;OS_dispatch_object -->
<g id="edge63" class="edge"><title>OS_dispatch_mach&#45;&gt;OS_dispatch_object</title>
<path fill="none" stroke="black" d="M5211.18,-334.063C5208.34,-333.328 5205.52,-332.636 5202.75,-332 5089.3,-305.994 4955.15,-289.279 4873.54,-280.638"/>
<polygon fill="black" stroke="black" points="4873.68,-277.132 4863.37,-279.573 4872.95,-284.094 4873.68,-277.132"/>
</g>
<!-- OS_dispatch_source -->
<g id="node65" class="node"><title>OS_dispatch_source</title>
<path fill="none" stroke="black" d="M5366.2,-332.5C5366.2,-332.5 5473.29,-332.5 5473.29,-332.5 5479.29,-332.5 5485.29,-338.5 5485.29,-344.5 5485.29,-344.5 5485.29,-366.5 5485.29,-366.5 5485.29,-372.5 5479.29,-378.5 5473.29,-378.5 5473.29,-378.5 5366.2,-378.5 5366.2,-378.5 5360.2,-378.5 5354.2,-372.5 5354.2,-366.5 5354.2,-366.5 5354.2,-344.5 5354.2,-344.5 5354.2,-338.5 5360.2,-332.5 5366.2,-332.5"/>
<text text-anchor="middle" x="5419.75" y="-363.3" font-family="Times,serif" font-size="14.00">OS_dispatch_source</text>
<polyline fill="none" stroke="black" points="5354.2,-356.5 5485.29,-356.5 "/>
</g>
<!-- OS_dispatch_source&#45;&gt;OS_dispatch_object -->
<g id="edge64" class="edge"><title>OS_dispatch_source&#45;&gt;OS_dispatch_object</title>
<path fill="none" stroke="black" d="M5354.07,-334.049C5350.93,-333.307 5347.81,-332.618 5344.75,-332 5178.34,-298.424 4979.25,-283.253 4873.47,-277.128"/>
<polygon fill="black" stroke="black" points="4873.4,-273.619 4863.21,-276.546 4873,-280.608 4873.4,-273.619"/>
</g>
<!-- OS_dispatch_queue -->
<g id="node66" class="node"><title>OS_dispatch_queue</title>
<path fill="none" stroke="black" d="M5515.76,-332.5C5515.76,-332.5 5619.73,-332.5 5619.73,-332.5 5625.73,-332.5 5631.73,-338.5 5631.73,-344.5 5631.73,-344.5 5631.73,-366.5 5631.73,-366.5 5631.73,-372.5 5625.73,-378.5 5619.73,-378.5 5619.73,-378.5 5515.76,-378.5 5515.76,-378.5 5509.76,-378.5 5503.76,-372.5 5503.76,-366.5 5503.76,-366.5 5503.76,-344.5 5503.76,-344.5 5503.76,-338.5 5509.76,-332.5 5515.76,-332.5"/>
<text text-anchor="middle" x="5567.75" y="-363.3" font-family="Times,serif" font-size="14.00">OS_dispatch_queue</text>
<polyline fill="none" stroke="black" points="5503.76,-356.5 5631.73,-356.5 "/>
</g>
<!-- OS_dispatch_queue&#45;&gt;OS_dispatch_object -->
<g id="edge65" class="edge"><title>OS_dispatch_queue&#45;&gt;OS_dispatch_object</title>
<path fill="none" stroke="black" d="M5503.45,-333.861C5500.52,-333.181 5497.61,-332.555 5494.75,-332 5271.34,-288.706 5001.45,-277.449 4873.29,-274.525"/>
<polygon fill="black" stroke="black" points="4873.26,-271.024 4863.19,-274.305 4873.11,-278.022 4873.26,-271.024"/>
</g>
<!-- OS_dispatch_queue_specific_queue -->
<g id="node67" class="node"><title>OS_dispatch_queue_specific_queue</title>
<path fill="none" stroke="black" d="M4910.66,-415.5C4910.66,-415.5 5104.83,-415.5 5104.83,-415.5 5110.83,-415.5 5116.83,-421.5 5116.83,-427.5 5116.83,-427.5 5116.83,-449.5 5116.83,-449.5 5116.83,-455.5 5110.83,-461.5 5104.83,-461.5 5104.83,-461.5 4910.66,-461.5 4910.66,-461.5 4904.66,-461.5 4898.66,-455.5 4898.66,-449.5 4898.66,-449.5 4898.66,-427.5 4898.66,-427.5 4898.66,-421.5 4904.66,-415.5 4910.66,-415.5"/>
<text text-anchor="middle" x="5007.75" y="-446.3" font-family="Times,serif" font-size="14.00">OS_dispatch_queue_specific_queue</text>
<polyline fill="none" stroke="black" points="4898.66,-439.5 5116.83,-439.5 "/>
</g>
<!-- OS_dispatch_queue_specific_queue&#45;&gt;OS_dispatch_queue -->
<g id="edge66" class="edge"><title>OS_dispatch_queue_specific_queue&#45;&gt;OS_dispatch_queue</title>
<path fill="none" stroke="black" d="M5116.98,-416.309C5119.93,-415.853 5122.86,-415.416 5125.75,-415 5285.66,-392.002 5331.41,-410.672 5493.61,-379.042"/>
<polygon fill="black" stroke="black" points="5494.31,-382.47 5503.44,-377.091 5492.95,-375.604 5494.31,-382.47"/>
</g>
<!-- OS_dispatch_queue_mgr -->
<g id="node68" class="node"><title>OS_dispatch_queue_mgr</title>
<path fill="none" stroke="black" d="M5146.98,-415.5C5146.98,-415.5 5280.51,-415.5 5280.51,-415.5 5286.51,-415.5 5292.51,-421.5 5292.51,-427.5 5292.51,-427.5 5292.51,-449.5 5292.51,-449.5 5292.51,-455.5 5286.51,-461.5 5280.51,-461.5 5280.51,-461.5 5146.98,-461.5 5146.98,-461.5 5140.98,-461.5 5134.98,-455.5 5134.98,-449.5 5134.98,-449.5 5134.98,-427.5 5134.98,-427.5 5134.98,-421.5 5140.98,-415.5 5146.98,-415.5"/>
<text text-anchor="middle" x="5213.75" y="-446.3" font-family="Times,serif" font-size="14.00">OS_dispatch_queue_mgr</text>
<polyline fill="none" stroke="black" points="5134.98,-439.5 5292.51,-439.5 "/>
</g>
<!-- OS_dispatch_queue_mgr&#45;&gt;OS_dispatch_queue -->
<g id="edge67" class="edge"><title>OS_dispatch_queue_mgr&#45;&gt;OS_dispatch_queue</title>
<path fill="none" stroke="black" d="M5292.84,-417.015C5295.84,-416.32 5298.82,-415.646 5301.75,-415 5383.87,-396.862 5408.28,-399.647 5493.52,-379.182"/>
<polygon fill="black" stroke="black" points="5494.48,-382.549 5503.37,-376.78 5492.83,-375.749 5494.48,-382.549"/>
</g>
<!-- OS_dispatch_queue_root -->
<g id="node69" class="node"><title>OS_dispatch_queue_root</title>
<path fill="none" stroke="black" d="M5322.98,-415.5C5322.98,-415.5 5456.51,-415.5 5456.51,-415.5 5462.51,-415.5 5468.51,-421.5 5468.51,-427.5 5468.51,-427.5 5468.51,-449.5 5468.51,-449.5 5468.51,-455.5 5462.51,-461.5 5456.51,-461.5 5456.51,-461.5 5322.98,-461.5 5322.98,-461.5 5316.98,-461.5 5310.98,-455.5 5310.98,-449.5 5310.98,-449.5 5310.98,-427.5 5310.98,-427.5 5310.98,-421.5 5316.98,-415.5 5322.98,-415.5"/>
<text text-anchor="middle" x="5389.75" y="-446.3" font-family="Times,serif" font-size="14.00">OS_dispatch_queue_root</text>
<polyline fill="none" stroke="black" points="5310.98,-439.5 5468.51,-439.5 "/>
</g>
<!-- OS_dispatch_queue_root&#45;&gt;OS_dispatch_queue -->
<g id="edge68" class="edge"><title>OS_dispatch_queue_root&#45;&gt;OS_dispatch_queue</title>
<path fill="none" stroke="black" d="M5438.38,-415.366C5460.46,-405.321 5486.74,-393.363 5509.82,-382.858"/>
<polygon fill="black" stroke="black" points="5511.51,-385.934 5519.16,-378.607 5508.61,-379.563 5511.51,-385.934"/>
</g>
<!-- OS_dispatch_queue_main -->
<g id="node70" class="node"><title>OS_dispatch_queue_main</title>
<path fill="none" stroke="black" d="M5498.26,-415.5C5498.26,-415.5 5637.23,-415.5 5637.23,-415.5 5643.23,-415.5 5649.23,-421.5 5649.23,-427.5 5649.23,-427.5 5649.23,-449.5 5649.23,-449.5 5649.23,-455.5 5643.23,-461.5 5637.23,-461.5 5637.23,-461.5 5498.26,-461.5 5498.26,-461.5 5492.26,-461.5 5486.26,-455.5 5486.26,-449.5 5486.26,-449.5 5486.26,-427.5 5486.26,-427.5 5486.26,-421.5 5492.26,-415.5 5498.26,-415.5"/>
<text text-anchor="middle" x="5567.75" y="-446.3" font-family="Times,serif" font-size="14.00">OS_dispatch_queue_main</text>
<polyline fill="none" stroke="black" points="5486.26,-439.5 5649.23,-439.5 "/>
</g>
<!-- OS_dispatch_queue_main&#45;&gt;OS_dispatch_queue -->
<g id="edge69" class="edge"><title>OS_dispatch_queue_main&#45;&gt;OS_dispatch_queue</title>
<path fill="none" stroke="black" d="M5567.75,-415.366C5567.75,-407.152 5567.75,-397.658 5567.75,-388.725"/>
<polygon fill="black" stroke="black" points="5571.25,-388.607 5567.75,-378.607 5564.25,-388.607 5571.25,-388.607"/>
</g>
<!-- OS_dispatch_queue_concurrent -->
<g id="node71" class="node"><title>OS_dispatch_queue_concurrent</title>
<path fill="none" stroke="black" d="M5679.33,-415.5C5679.33,-415.5 5850.16,-415.5 5850.16,-415.5 5856.16,-415.5 5862.16,-421.5 5862.16,-427.5 5862.16,-427.5 5862.16,-449.5 5862.16,-449.5 5862.16,-455.5 5856.16,-461.5 5850.16,-461.5 5850.16,-461.5 5679.33,-461.5 5679.33,-461.5 5673.33,-461.5 5667.33,-455.5 5667.33,-449.5 5667.33,-449.5 5667.33,-427.5 5667.33,-427.5 5667.33,-421.5 5673.33,-415.5 5679.33,-415.5"/>
<text text-anchor="middle" x="5764.75" y="-446.3" font-family="Times,serif" font-size="14.00">OS_dispatch_queue_concurrent</text>
<polyline fill="none" stroke="black" points="5667.33,-439.5 5862.16,-439.5 "/>
</g>
<!-- OS_dispatch_queue_concurrent&#45;&gt;OS_dispatch_queue -->
<g id="edge70" class="edge"><title>OS_dispatch_queue_concurrent&#45;&gt;OS_dispatch_queue</title>
<path fill="none" stroke="black" d="M5711.17,-415.473C5686.31,-405.251 5656.59,-393.031 5630.67,-382.372"/>
<polygon fill="black" stroke="black" points="5631.89,-379.088 5621.31,-378.522 5629.22,-385.562 5631.89,-379.088"/>
</g>
<!-- OS_dispatch_queue_serial -->
<g id="node72" class="node"><title>OS_dispatch_queue_serial</title>
<path fill="none" stroke="black" d="M5892.1,-415.5C5892.1,-415.5 6033.39,-415.5 6033.39,-415.5 6039.39,-415.5 6045.39,-421.5 6045.39,-427.5 6045.39,-427.5 6045.39,-449.5 6045.39,-449.5 6045.39,-455.5 6039.39,-461.5 6033.39,-461.5 6033.39,-461.5 5892.1,-461.5 5892.1,-461.5 5886.1,-461.5 5880.1,-455.5 5880.1,-449.5 5880.1,-449.5 5880.1,-427.5 5880.1,-427.5 5880.1,-421.5 5886.1,-415.5 5892.1,-415.5"/>
<text text-anchor="middle" x="5962.75" y="-446.3" font-family="Times,serif" font-size="14.00">OS_dispatch_queue_serial</text>
<polyline fill="none" stroke="black" points="5880.1,-439.5 6045.39,-439.5 "/>
</g>
<!-- OS_dispatch_queue_serial&#45;&gt;OS_dispatch_queue -->
<g id="edge71" class="edge"><title>OS_dispatch_queue_serial&#45;&gt;OS_dispatch_queue</title>
<path fill="none" stroke="black" d="M5880.04,-417.069C5876.9,-416.36 5873.8,-415.667 5870.75,-415 5792.91,-397.978 5703.25,-380.991 5641.77,-369.742"/>
<polygon fill="black" stroke="black" points="5642.24,-366.27 5631.77,-367.918 5640.98,-373.156 5642.24,-366.27"/>
</g>
<!-- OS_dispatch_queue_runloop -->
<g id="node73" class="node"><title>OS_dispatch_queue_runloop</title>
<path fill="none" stroke="black" d="M6075.48,-415.5C6075.48,-415.5 6230.01,-415.5 6230.01,-415.5 6236.01,-415.5 6242.01,-421.5 6242.01,-427.5 6242.01,-427.5 6242.01,-449.5 6242.01,-449.5 6242.01,-455.5 6236.01,-461.5 6230.01,-461.5 6230.01,-461.5 6075.48,-461.5 6075.48,-461.5 6069.48,-461.5 6063.48,-455.5 6063.48,-449.5 6063.48,-449.5 6063.48,-427.5 6063.48,-427.5 6063.48,-421.5 6069.48,-415.5 6075.48,-415.5"/>
<text text-anchor="middle" x="6152.75" y="-446.3" font-family="Times,serif" font-size="14.00">OS_dispatch_queue_runloop</text>
<polyline fill="none" stroke="black" points="6063.48,-439.5 6242.01,-439.5 "/>
</g>
<!-- OS_dispatch_queue_runloop&#45;&gt;OS_dispatch_queue -->
<g id="edge72" class="edge"><title>OS_dispatch_queue_runloop&#45;&gt;OS_dispatch_queue</title>
<path fill="none" stroke="black" d="M6063.36,-416.567C6060.46,-416.019 6057.58,-415.495 6054.75,-415 5909.45,-389.669 5737.86,-371.837 5642.04,-362.952"/>
<polygon fill="black" stroke="black" points="5642.16,-359.447 5631.88,-362.016 5641.52,-366.418 5642.16,-359.447"/>
</g>
</g>
</svg>
